<svg xmlns="http://www.w3.org/2000/svg" width="86" height="82" fill="none" viewBox="0 0 86 82"><mask id="mask0_33314_38337" width="86" height="82" x="0" y="0" maskUnits="userSpaceOnUse" style="mask-type:alpha"><rect width="86" height="82" fill="#fff" rx="8"/></mask><g mask="url(#mask0_33314_38337)"><path fill="#51B95C" d="M54.444 21.152c-.1-.021-.197-.054-.345-.095-.024-.914-.045-1.82-.072-2.77-.858-.168-1.732-.337-2.607-.506l-1.12 2.412s-.521.963-1.474.762c0 0-2.129-.25-2.677 1.85 0 0-1.326 5.404-.729 5.702l.136 2.874c2.808.545 5.617 1.09 8.424 1.632.946.183 2.027-3.129 2.218-4.09.262-1.32.522-2.64.766-3.96.37-1.985-.56-3.377-2.52-3.81Z"/><path fill="#3FC7F4" d="M59.415 12.542c-2.119-.413-4.246-.621-6.38-.514-1.176.415-2.283.925-1.975 1.295 0 0 1.125 1.195 1.04 2.604l-.241 1.476 2.078.404c.046-.194.122-.36.12-.52-.01-.862.448-1.269 1.256-1.45.583-.134 1.137-.39 1.723-.596.194.669.318 1.332.573 1.94.676 1.602 1.407 3.18 2.117 4.765.029.063.051.16.1.177.269.093.545.168.818.246-.008-.273.095-.633-.044-.801-1.532-1.878-1.958-4.094-2.06-6.424-.016-.327.07-.53.406-.592.035-.005.065-.02.099-.031.976-.352.951-.352.92-1.381-.01-.42-.224-.535-.55-.598Z"/><path fill="#54BA66" d="M61.439 12.396c-.37-.058-.74-.108-1.177-.173l.212 2.407c.75-.266 1.44-.51 2.105-.748.021-.075.04-.106.037-.14-.033-1.159-.03-1.16-1.177-1.346Z"/><path fill="#0892C0" d="M51.06 13.323c-.308-.37.801-.881 1.975-1.296-.8.042-1.6.125-2.4.258a2.997 2.997 0 0 0-.783.255c-.47.223-.47.448-.133.823.445.493.847 1.028 1.246 1.56.321.426.38.902.216 1.418-.086.275-.118.569-.18.897.29.058.576.111.855.166l.24-1.476c.09-1.41-1.036-2.605-1.036-2.605Z"/><path fill="#00AE69" d="M46.15 22.804c.548-2.1 2.677-1.85 2.677-1.85.952.198 1.473-.762 1.473-.762l1.12-2.412-.84-.163c-.322.733-.652 1.452-.952 2.18-.12.29-.261.373-.585.317-1.858-.33-3.31.67-3.682 2.513-.271 1.352-.529 2.707-.786 4.062-.174.913.174 1.43 1.07 1.602l.509.098-.005-.02c-1.36-.426.001-5.565.001-5.565Z"/><path fill="#FA2961" d="M56.379 36.33s.56 2.263-2.178 4.9c0 0-1.48 1.634-.36 3.142a4.95 4.95 0 0 0 .197-.023c.058-.009.115-.02.175-.032.494-.103.88-.076 1.21.2.11.092.214.214.316.365.02.028.042.057.072.081.061.055.141.105.229.149.222.11.5.173.648.12.778-.283 1.246-.026 1.752.552.252.288.476.42.7.41a.679.679 0 0 0 .34-.117c.117-.073.237-.18.361-.32.068-.074.129-.155.19-.24l.17-.25c.143-.211.259-.431.35-.654.187-.447.283-.915.334-1.392.017-.16.028-.319.034-.478.006-.159.012-.323.012-.484.003-.242-.003-.485-.005-.726-.026-1.549.406-2.875 1.522-3.986.31-.306.512-.707.793-1.108.054-.067.103-.136.154-.205l-7.111-2.289c-.043.696-.04 1.506.095 2.385Z"/><path fill="#E82C47" d="M55.654 33.742c-.009.162-.005.25-.005.25-.003 0-.004-.088.005-.25Z"/><path fill="#FA2961" d="M61.532 26.147s-1.841.983-3.321 2.814l6.431 2.07a4.535 4.535 0 0 0-.09-.77c-.272-1.213-.595-2.417-.919-3.622-.677-.219-1.302-.418-1.974-.635l-.127.143Z"/><path fill="#E82C47" d="M54.033 40.234ZM52.977 42.463ZM52.899 43.31c.004.53.111.846.376.986-.265-.14-.372-.459-.376-.986Z"/><path fill="#FCDDE2" d="M56.698 31.71s-.311.89-.409 2.238l7.111 2.288c.781-1.043 1.094-2.212 1.213-3.057.014-.102.024-.197.034-.287.056-.54.033-.891.033-.891-.024-.342-.026-.663-.04-.97l-6.432-2.07c-.623.772-1.18 1.689-1.51 2.75ZM55.659 33.64ZM64.172 24.958a.382.382 0 0 0-.04-.074.36.36 0 0 0-.057-.058c-.396-.323-.968-.564-1.534-.678-.324.014-.671.089-.912.338l-.8 1.253.065.021.178.057.069.024.278.087c.063.022.126.04.187.062l.046.015c.669.217 1.297.416 1.974.635l.465.15c.007-.282.053-.592.09-.884l.018-.144c.04-.323.056-.619-.027-.804Z"/><path fill="#010101" d="M55.594 37.58ZM60.83 25.742c-.072-.024-.14-.044-.213-.07.14.046.276.088.41.133-.043-.015-.088-.027-.131-.042l-.066-.021Z" opacity=".37"/><path fill="#BF1A46" d="M54.197 41.228c2.738-2.634 2.178-4.899 2.178-4.899a10.614 10.614 0 0 1-.087-2.383l-.636-.204c-.009.162-.005.25-.005.25-.004.043-.005.087-.008.137-.004.05-.004.1-.007.154l-.007.333c0 .222.008.432.034.552.112.524.145 1 .113 1.448a4.199 4.199 0 0 1-.182.962 4.677 4.677 0 0 1-.23.603 6.738 6.738 0 0 1-.48.877c-.125.193-.258.387-.399.582-.14.195-.293.39-.45.593a5.905 5.905 0 0 0-.473.692c-.139.24-.26.487-.359.742-.099.254-.174.52-.226.794a4.319 4.319 0 0 0-.074.846c.004.53.111.846.376.985.058.03.124.054.2.069.077.014.16.02.252.018.036 0 .072-.004.11-.006-1.12-1.508.36-3.145.36-3.145ZM61.529 26.149l.127-.14-.046-.015a3.546 3.546 0 0 1-.187-.062l-.275-.088c-.002.003-.005.003-.008.003l-.039.03a4.882 4.882 0 0 0-.275.21c-.338.277-.725.503-1.051.789a78.591 78.591 0 0 0-1.08.973c-.317.288-.639.585-.971.888-.018.016-.035.035-.056.05l.548.177c1.471-1.832 3.313-2.815 3.313-2.815Z"/><path fill="#FCDDE2" d="M56.292 33.95c.098-1.348.409-2.237.409-2.237.33-1.06.887-1.978 1.51-2.747l-.548-.177-.091.084-.058.062a4.5 4.5 0 0 0-.643.762c-.2.298-.364.62-.499.953a10.538 10.538 0 0 0-.63 2.271 7.617 7.617 0 0 0-.062.476c-.01.092-.015.176-.021.249l-.007.1.64.204Z"/><path fill="#010101" d="M56.292 33.95c.098-1.348.409-2.237.409-2.237.33-1.06.887-1.978 1.51-2.747l-.548-.177-.091.084-.058.062a4.5 4.5 0 0 0-.643.762c-.2.298-.364.62-.499.953a10.538 10.538 0 0 0-.63 2.271 7.617 7.617 0 0 0-.062.476c-.01.092-.015.176-.021.249l-.007.1.64.204Z" opacity=".37"/><path fill="#FCDDE2" d="m57.66 28.79-.09.083c-.021.019-.038.04-.058.062.02-.019.037-.043.057-.062.03-.03.061-.056.091-.084Z"/><path fill="#010101" d="m57.66 28.79-.09.083c-.021.019-.038.04-.058.062.02-.019.037-.043.057-.062.03-.03.061-.056.091-.084Z" opacity=".37"/><path fill="#FCDDE2" d="M61.63 24.486c.24-.252.586-.326.912-.338a3.498 3.498 0 0 0-.546-.068 2.836 2.836 0 0 0-.299.005.36.36 0 0 0-.076.017.453.453 0 0 0-.143.09.88.88 0 0 0-.137.155 2.44 2.44 0 0 0-.195.317c-.041.079-.086.164-.127.249-.057.114-.112.23-.172.345-.017.03-.03.058-.047.09-.06.115-.121.224-.183.325l.213.07.8-1.257Z"/><path fill="#010101" d="M61.63 24.486c.24-.252.586-.326.912-.338a3.498 3.498 0 0 0-.546-.068 2.836 2.836 0 0 0-.299.005.36.36 0 0 0-.076.017.453.453 0 0 0-.143.09.88.88 0 0 0-.137.155 2.44 2.44 0 0 0-.195.317c-.041.079-.086.164-.127.249-.057.114-.112.23-.172.345-.017.03-.03.058-.047.09-.06.115-.121.224-.183.325l.213.07.8-1.257Z" opacity=".37"/><path fill="#FCDDE2" d="m61.026 25.808.046.014-.178-.056c.046.012.09.027.132.042Z"/><path fill="#010101" d="m61.026 25.808.046.014-.178-.056c.046.012.09.027.132.042Z" opacity=".37"/><path fill="#FCDDE2" d="m61.423 25.932-.279-.088.279.088Z"/><path fill="#010101" d="m61.423 25.932-.279-.088.279.088Z" opacity=".37"/><path fill="#FCDDE2" d="m61.074 25.82.069.024c-.023-.01-.046-.015-.069-.024Z"/><path fill="#010101" d="m61.074 25.82.069.024c-.023-.01-.046-.015-.069-.024Z" opacity=".37"/><path fill="#C42F49" d="M28.387 25.91c.076-.023.149-.051.225-.08l-.027-.271c-.016.028-.032.057-.05.084-.053.081-.095.178-.148.267ZM28.2 26.971c.035.037.073.077.11.113l.044.044c.16.1.331.19.51.265-.043-.204-.087-.44-.13-.694-.05.028-.105.058-.156.082a.936.936 0 0 1-.379.19Z"/><path fill="#BF1A46" d="M22.94 31.363s-.6-3.778 2.836-3.041c.06-.128.115-.254.174-.381.014-.087.03-.176.046-.261l-.036.08c-.006-.006-.009-.011-.019-.01-.202.04-.397.144-.594.213-.244.086-.504.1-.754.152a2.39 2.39 0 0 1-1.093-.333c-1.748 1.204-1.421 3.391-1.421 3.391 2.113 7.663 7.92 5.657 9.186 5.119-2.54.429-6.937.346-8.324-4.93ZM27.476 25.631c.383-.282.659-.692.836-1.147-.687.436-1.069.927-1.273 1.374.142-.056.274-.133.409-.205.008-.008.018-.015.028-.022ZM27.304 27.665v-.006a.424.424 0 0 0-.056-.018c-.009.032-.023.062-.036.092v.004l-.006.012a.842.842 0 0 1-.087.166c-.1.26-.222.505-.353.743.98.32 2.51.66 2.289-.434l-.058-.228c-.023.003-.05.004-.073.006-.541.026-1.13-.076-1.62-.337Z"/><path fill="#C42F49" d="M27.072 26.154c.165.071.337.13.516.165a9.715 9.715 0 0 1-.603-.346l-.044.117.039.021.092.043Z"/><path fill="#BF1A46" d="M29.113 24.565c.465-.287.993-.585 1.572-.874 0 0 .168-.063.445-.073-.794-.237-1.516.06-1.947.315.003.045.005.09.003.134a2.11 2.11 0 0 1-.073.498Z"/><path fill="#EA1E55" d="M31.128 23.615c-.279.013-.445.074-.445.074-.58.288-1.105.588-1.572.873a2.4 2.4 0 0 1-.492.934c-.01.02-.022.039-.035.056.01.09.017.183.027.271a3.503 3.503 0 0 0 1.059-.63c.062-.053.127-.108.19-.164.023-.018.044-.038.066-.054l.17-.15c.023-.019.045-.041.065-.061.053-.05.106-.098.157-.148.02-.02.04-.038.058-.06a2.91 2.91 0 0 0 .177-.196c.173-.205.316-.43.392-.684l-.009.055a2.613 2.613 0 0 1-.216.893c-.18.401-.476.742-.773 1.057-.307.325-.74.743-1.22 1.01.043.254.087.49.13.694.519.22 1.095.324 1.656.29-.058.024-.117.045-.177.068-.01 0-.02.001-.03.004a5.322 5.322 0 0 1-1.316.24c.035.145.058.228.058.228.22 1.096-1.306.755-2.29.434a5.779 5.779 0 0 1-.81 1.123c-.324.35-.697.626-1.112.859a3.4 3.4 0 0 1-.666.264c-.127.04-.366.144-.54.147.024-.027.049-.054.078-.083 0 0 .002.002.003 0 .183-.178.417-.343.575-.493.318-.307.597-.651.851-1.012.256-.364.45-.747.63-1.138-3.437-.736-2.836 3.042-2.836 3.042 1.39 5.276 5.788 5.359 8.323 4.925.158-.069.247-.114.247-.114.113-.055.223-.116.326-.181.074-.04.152-.079.222-.125 3.09-1.9 4.142-5.872 2.622-9.167-1.281-2.79-2.806-3.113-3.543-3.08Z"/><path fill="#EF4537" d="M31.834 35.996a4.31 4.31 0 0 1-.326.182c.115-.058.22-.122.326-.182Z"/><path fill="#00AE69" d="M26.02 27.616a.733.733 0 0 1-.082.134c.01-.001.014.002.019.01l.036-.08c-.016.089-.03.176-.047.26-.056.13-.116.257-.174.382-.18.391-.374.776-.629 1.138a6.96 6.96 0 0 1-.851 1.011c-.158.151-.394.318-.575.493.24.035.496-.124.69-.254a5.912 5.912 0 0 0 1.268-1.18c.367-.456.766-1.007.947-1.568.056-.177.12-.616.373-.6.141.007.202.202.216.368.011-.032.025-.062.036-.093a.434.434 0 0 0 .056.019v.006c.49.26 1.079.363 1.62.33.024-.002.05-.003.074-.006.42-.028.887-.096 1.314-.24a3.13 3.13 0 0 1-1.419-.055 2.273 2.273 0 0 1-.819-.427c-.151-.124-.416-.393-.317-.608.185.154.359.31.555.42-.036-.036-.075-.074-.11-.112a.91.91 0 0 0 .376-.192c.052-.024.106-.054.157-.082.478-.267.913-.684 1.22-1.01.297-.314.59-.656.772-1.056.133-.297.19-.571.217-.893 0-.013.005-.032.009-.055-.078.256-.22.479-.393.684.007-.006.01-.013.017-.019a4.984 4.984 0 0 1-.177.364 3.045 3.045 0 0 1-1.083 1.15c-.66.403-1.634.469-2.344.1l.014.008c.196.123.397.236.603.346a2.562 2.562 0 0 1-.516-.165l.086.04c-1.11-.157-1.976-1.068-2.211-2.16-.068-.306.012-.576.046-.876.017-.154-.072-.28-.216-.333a.318.318 0 0 0-.028-.007c-.184.12-.323.288-.336.552-.01.253.051.54.164.793.061.11.13.216.2.315.12.22.248.43.405.632.186.24.38.477.585.702.302.338.704.782.464 1.23a.227.227 0 0 1-.01-.071c.04-.217-.049-.429-.178-.624-.01.038-.019.077-.038.117-.053.122-.156.199-.258.277a.85.85 0 0 1-.066.045c.003.001.001.004.004.005a.33.33 0 0 1-.04.031v-.006c0-.006.002-.008.003-.01-1.174.716-2.842.106-3.479-1.108-.05-.091-.09-.187-.138-.277a.241.241 0 0 0-.032.108c.239.734.873 1.344 1.497 1.753.737.489 1.69.635 2.522.344Z"/><path fill="#C42F49" d="m27.214 27.738-.001-.004c-.003.005-.003.011-.006.016l.007-.012Z"/><path fill="#109C49" d="m27.214 27.738-.001-.004c-.003.005-.003.011-.006.016l.007-.012Z"/><path fill="#EF4537" d="M23.71 30.965c-.026.025-.052.055-.077.082.025-.027.056-.054.08-.081.002-.002 0 0-.002-.001Z"/><path fill="#109C49" d="M23.71 30.965c-.026.025-.052.055-.077.082.025-.027.056-.054.08-.081.002-.002 0 0-.002-.001Z"/><path fill="#109C49" d="m27.209 27.747.005-.016c-.016-.167-.074-.36-.215-.368-.254-.013-.318.424-.373.6-.18.561-.581 1.114-.947 1.567a5.91 5.91 0 0 1-1.269 1.18c-.193.131-.45.29-.69.256-.027.028-.057.052-.08.08.175-.002.416-.11.54-.146.23-.07.458-.146.667-.264a4.41 4.41 0 0 0 1.112-.859c.326-.35.589-.725.81-1.123.132-.239.255-.485.354-.744a.831.831 0 0 0 .086-.163Z"/><path fill="#109C49" d="m27.209 27.747.005-.016c-.016-.167-.074-.36-.215-.368-.254-.013-.318.424-.373.6-.18.561-.581 1.114-.947 1.567a5.91 5.91 0 0 1-1.269 1.18c-.193.131-.45.29-.69.256-.027.028-.057.052-.08.08.175-.002.416-.11.54-.146.23-.07.458-.146.667-.264a4.41 4.41 0 0 0 1.112-.859c.326-.35.589-.725.81-1.123.132-.239.255-.485.354-.744a.831.831 0 0 0 .086-.163ZM26.961 25.96a.464.464 0 0 1 .01.005c-.03-.02-.062-.035-.092-.055.029.016.054.034.082.05Z"/><path fill="#109C49" d="M29.314 25.862a3.044 3.044 0 0 0 1.083-1.149c.064-.119.12-.241.177-.364-.007.006-.01.013-.017.019a4.41 4.41 0 0 1-.177.197l-.058.058c-.05.05-.104.1-.157.149-.02.02-.045.04-.066.06l-.17.15c-.022.02-.043.039-.065.055l-.19.164a3.504 3.504 0 0 1-1.059.63c-.075.027-.15.058-.225.08.05-.088.091-.184.145-.267.018-.028.034-.056.05-.085.011-.02.025-.037.035-.056a2.4 2.4 0 0 0 .492-.934 1.99 1.99 0 0 0 .073-.498c0-.045 0-.09-.003-.135-.018-.341-.128-.722-.375-.962-.144-.141-.386-.338-.626-.388.371.42.38 1.088.226 1.623a3.35 3.35 0 0 1-.098.28c-.177.454-.453.863-.836 1.146l-.03.02c-.136.072-.266.147-.41.205-.016.007-.03.017-.05.022a.716.716 0 0 1-.108.03c.03.02.06.038.092.056.71.362 1.687.298 2.347-.106Z"/><path fill="#109C49" d="M29.314 25.862a3.044 3.044 0 0 0 1.083-1.149c.064-.119.12-.241.177-.364-.007.006-.01.013-.017.019a4.41 4.41 0 0 1-.177.197l-.058.058c-.05.05-.104.1-.157.149-.02.02-.045.04-.066.06l-.17.15c-.022.02-.043.039-.065.055l-.19.164a3.504 3.504 0 0 1-1.059.63c-.075.027-.15.058-.225.08.05-.088.091-.184.145-.267.018-.028.034-.056.05-.085.011-.02.025-.037.035-.056a2.4 2.4 0 0 0 .492-.934 1.99 1.99 0 0 0 .073-.498c0-.045 0-.09-.003-.135-.018-.341-.128-.722-.375-.962-.144-.141-.386-.338-.626-.388.371.42.38 1.088.226 1.623a3.35 3.35 0 0 1-.098.28c-.177.454-.453.863-.836 1.146l-.03.02c-.136.072-.266.147-.41.205-.016.007-.03.017-.05.022a.716.716 0 0 1-.108.03c.03.02.06.038.092.056.71.362 1.687.298 2.347-.106Z"/><path fill="#109C49" d="M24.992 23.158c-.033.3-.113.57-.046.876.237 1.09 1.098 2.002 2.211 2.16-.029-.01-.057-.027-.085-.04-.03-.013-.061-.025-.093-.042l-.038-.022a2.803 2.803 0 0 1-.135-.073l-.067-.038a3.01 3.01 0 0 1-.227-.153l-.052-.041c-.054-.044-.11-.088-.164-.134-.024-.024-.048-.043-.073-.067-.046-.041-.088-.084-.132-.128l-.072-.075c-.043-.046-.085-.095-.129-.146-.018-.023-.038-.043-.057-.066a4.27 4.27 0 0 1-.17-.225 3.031 3.031 0 0 1-.146-.323c-.002-.007-.001-.02-.002-.035l-.022-.067c-.127-.396-.193-.787-.148-1.203.034-.306.39-.931-.238-.68-.054.023-.11.045-.163.072l-.038.017c-.048.023-.091.05-.134.075-.01.005-.018.01-.026.017l.028.007c.146.054.236.18.218.334Z"/><path fill="#109C49" d="M24.992 23.158c-.033.3-.113.57-.046.876.237 1.09 1.098 2.002 2.211 2.16-.029-.01-.057-.027-.085-.04-.03-.013-.061-.025-.093-.042l-.038-.022a2.803 2.803 0 0 1-.135-.073l-.067-.038a3.01 3.01 0 0 1-.227-.153l-.052-.041c-.054-.044-.11-.088-.164-.134-.024-.024-.048-.043-.073-.067-.046-.041-.088-.084-.132-.128l-.072-.075c-.043-.046-.085-.095-.129-.146-.018-.023-.038-.043-.057-.066a4.27 4.27 0 0 1-.17-.225 3.031 3.031 0 0 1-.146-.323c-.002-.007-.001-.02-.002-.035l-.022-.067c-.127-.396-.193-.787-.148-1.203.034-.306.39-.931-.238-.68-.054.023-.11.045-.163.072l-.038.017c-.048.023-.091.05-.134.075-.01.005-.018.01-.026.017l.028.007c.146.054.236.18.218.334Z"/><path fill="#109C49" d="m24.746 22.817.028-.016a.232.232 0 0 0-.028.016Z"/><path fill="#109C49" d="m24.746 22.817.028-.016a.232.232 0 0 0-.028.016ZM26.94 26.089c-.047-.023-.09-.048-.135-.073.044.028.09.05.135.073Z"/><path fill="#109C49" d="M26.94 26.089c-.047-.023-.09-.048-.135-.073.044.028.09.05.135.073Z"/><path fill="#EF4537" d="M30.343 27.747c.06-.02.12-.043.177-.067-.066.028-.137.048-.207.072.007-.002.02-.002.03-.005Z"/><path fill="#109C49" d="M30.343 27.747c.06-.02.12-.043.177-.067-.066.028-.137.048-.207.072.007-.002.02-.002.03-.005Z"/><path fill="#109C49" d="m28.355 27.128-.044-.044c-.198-.108-.372-.263-.555-.42-.1.215.165.484.317.607.24.196.52.341.819.428.464.132.948.14 1.419.056.07-.024.141-.043.208-.072a3.71 3.71 0 0 1-2.164-.555Z"/><path fill="#109C49" d="m28.355 27.128-.044-.044c-.198-.108-.372-.263-.555-.42-.1.215.165.484.317.607.24.196.52.341.819.428.464.132.948.14 1.419.056.07-.024.141-.043.208-.072a3.71 3.71 0 0 1-2.164-.555ZM25.342 27.96c.196-.066.392-.173.594-.214a.752.752 0 0 0 .082-.133c-.834.293-1.787.147-2.52-.337-.623-.411-1.258-1.019-1.497-1.753a.266.266 0 0 0 .018.118c.074.244.16.49.267.719.22.47.526.958.956 1.264.08.058.167.107.253.155.344.195.717.317 1.093.333.251-.054.511-.068.754-.152Z"/><path fill="#109C49" d="M25.342 27.96c.196-.066.392-.173.594-.214a.752.752 0 0 0 .082-.133c-.834.293-1.787.147-2.52-.337-.623-.411-1.258-1.019-1.497-1.753a.266.266 0 0 0 .018.118c.074.244.16.49.267.719.22.47.526.958.956 1.264.08.058.167.107.253.155.344.195.717.317 1.093.333.251-.054.511-.068.754-.152Z"/><path fill="#FAAC19" d="M39.576 41.724a8.003 8.003 0 0 1 1.187-1.454c-.063-.059-.125-.116-.184-.179a4.27 4.27 0 1 1 7.287-1.942c1.057.202 2.06.61 2.954 1.2l-3.372-10.326L36.59 32.57l2.986 9.154ZM47.668 27.438l-12.207 3.986 1.125 1.147 10.858-3.547.233-1.59-.009.003Z"/><path fill="#EF484F" d="m39.047 46.33.271.828.332-.6.621.287.332-.6.623.29.332-.6.621.287.332-.6.621.288.335-.597.62.287.333-.6.622.29.333-.6.62.287.333-.6.625.287.332-.6.621.288.334-.597.621.287.332-.6.621.287.334-.597.623.285.333-.6.623.29.332-.6.62.287-.268-.83-12.208 3.988-1.156.379ZM35.46 31.423l12.208-3.987-.271-.827-.33.598-.623-.285-.332.595-.623-.285-.333.6-.62-.287-.335.597-.62-.287-.333.6-.62-.287-.335.597-.62-.287-.333.6-.62-.288-.335.598-.62-.287-.333.6-.623-.286-.334.598-.621-.288-.332.6-.621-.287-.335.597-.623-.285-.334.598-.62-.287-.333.6-.62-.288.268.825 1.157-.375Z"/><path fill="#FAAC19" d="M46.616 40.312a4.266 4.266 0 0 1-5.85-.041c-.454.438-.852.926-1.188 1.453l.863 2.638-.233 1.59 12.207-3.986.01-.004-1.128-1.149-.48-1.468a8.17 8.17 0 0 0-2.953-1.2 4.225 4.225 0 0 1-1.248 2.167Z"/><path fill="#FAAC19" d="m40.439 44.36-.863-2.638-2.99-9.154-1.125-1.146-1.156.375 1.127 1.149 3.85 11.794-.232 1.59 1.156-.38.233-1.59Z"/><path fill="#D6D7D7" d="m40.439 44.36-.863-2.638-2.99-9.154-1.125-1.146-1.156.375 1.127 1.149 3.85 11.794-.232 1.59 1.156-.38.233-1.59Z"/><path fill="#EF484F" d="M46.615 40.312a4.27 4.27 0 1 0-6.035-.22c.06.063.123.118.184.179a4.266 4.266 0 0 0 5.851.041Zm-.868-3.392a.66.66 0 0 1 .34.212c.438.19.582.92.31 1.663-.274.76-.875 1.239-1.339 1.071-.153-.056-.268-.18-.35-.344-.255-.303-.352-.837-.217-1.404.188-.782.75-1.317 1.256-1.198Zm-4.929-1.19a.95.95 0 0 1 .312-.453c.575-.447 1.604-.083 2.295.813.098.129.182.26.258.392.566.794.648 1.717.15 2.18-.568.527-1.672.264-2.469-.589-.723-.773-.94-1.769-.546-2.342Z"/><path fill="#E09C26" d="M46.316 38.56c-.188.781-.75 1.32-1.255 1.199a.684.684 0 0 1-.358-.236c.081.164.197.289.35.345.464.167 1.065-.311 1.34-1.072.267-.742.127-1.472-.311-1.663.268.294.373.846.234 1.426Z"/><path fill="#FAAC19" d="M44.706 39.524a.69.69 0 0 0 .358.236c.505.122 1.068-.415 1.254-1.2.14-.58.033-1.13-.234-1.425a.667.667 0 0 0-.34-.212c-.504-.12-1.068.416-1.254 1.2-.134.563-.038 1.097.216 1.401Z"/><path fill="#E09C26" d="M43.831 38.667c.5-.465.416-1.385-.15-2.18.445.801.445 1.653-.05 2.033-.575.446-1.604.083-2.295-.814-.515-.667-.696-1.439-.517-1.972-.393.572-.178 1.569.545 2.343.795.855 1.9 1.118 2.467.59Z"/><path fill="#FAAC19" d="M41.336 37.708c.692.895 1.719 1.26 2.295.814.494-.384.495-1.236.05-2.032a2.795 2.795 0 0 0-.259-.392c-.693-.895-1.72-1.26-2.295-.814a.95.95 0 0 0-.311.454c-.177.531.005 1.303.52 1.97Z"/><path fill="#8B10C5" d="M34.012 42.624a1.195 1.195 0 0 1 1.897-.92l.786.571c.39.284.913.305 1.325.053l2.056-1.255c.411-.25.934-.23 1.325.053l1.954 1.42c.388.28.906.303 1.317.057l2.11-1.266a1.195 1.195 0 0 1 1.325.063l1.9 1.402c.389.287.911.312 1.325.063l2.11-1.266c.41-.246.93-.224 1.317.058l1.943 1.41c.396.288.928.305 1.341.043l.696-.44a1.195 1.195 0 0 1 1.833 1.058l-.979 24.48a1.196 1.196 0 0 1-1.242 1.146l-24.172-.966a1.195 1.195 0 0 1-1.147-1.242l.98-24.522Z"/><path fill="url(#paint0_linear_33314_38337)" d="m46.84 51.492-4.8-.192a1.105 1.105 0 0 1-.768-.362 1.142 1.142 0 0 1 .058-1.595 1.094 1.094 0 0 1 .8-.295l7.188.288a1.08 1.08 0 0 1 .774.357 1.119 1.119 0 0 1 .288.813c-.023.3-.158.58-.378.78l-6.127 6.86 5.083.203a1.078 1.078 0 0 1 .773.358 1.112 1.112 0 0 1 .29.813 1.143 1.143 0 0 1-.359.781c-.215.203-.5.31-.794.3l-7.442-.297a1.112 1.112 0 0 1-.773-.372 1.15 1.15 0 0 1-.288-.82c.02-.297.147-.577.357-.784l6.117-6.836Z"/><path fill="#fff" d="m58.938 42.642-.589.235a1.195 1.195 0 0 0-.746 1.002l-2.26 24.865a.598.598 0 0 0 .637.65l2.42-.172a1.195 1.195 0 0 0 1.109-1.14l1.067-24.278a1.195 1.195 0 0 0-1.638-1.163Z" opacity=".3"/></g><defs><linearGradient id="paint0_linear_33314_38337" x1="45.597" x2="45.147" y1="49.187" y2="60.453" gradientUnits="userSpaceOnUse"><stop stop-color="#FF3369"/><stop offset="1" stop-color="#FF7151"/></linearGradient></defs></svg>