<svg width="133" height="29" viewBox="0 0 133 29" fill="none" xmlns="http://www.w3.org/2000/svg">
<path d="M2.11364 23V5.54545H4.22727V21.125H12.3409V23H2.11364ZM23.5909 17.6477V9.90909H25.6023V23H23.5909V20.7841H23.4545C23.1477 21.4489 22.6705 22.0142 22.0227 22.4801C21.375 22.9403 20.5568 23.1705 19.5682 23.1705C18.75 23.1705 18.0227 22.9915 17.3864 22.6335C16.75 22.2699 16.25 21.7244 15.8864 20.9972C15.5227 20.2642 15.3409 19.3409 15.3409 18.2273V9.90909H17.3523V18.0909C17.3523 19.0455 17.6193 19.8068 18.1534 20.375C18.6932 20.9432 19.3807 21.2273 20.2159 21.2273C20.7159 21.2273 21.2244 21.0994 21.7415 20.8438C22.2642 20.5881 22.7017 20.196 23.054 19.6676C23.4119 19.1392 23.5909 18.4659 23.5909 17.6477ZM31.2976 15.125V23H29.2862V9.90909H31.2294V11.9545H31.3999C31.7067 11.2898 32.1726 10.7557 32.7976 10.3523C33.4226 9.94318 34.2294 9.73864 35.218 9.73864C36.1044 9.73864 36.88 9.92045 37.5447 10.2841C38.2095 10.642 38.7266 11.1875 39.0959 11.9205C39.4652 12.6477 39.6499 13.5682 39.6499 14.6818V23H37.6385V14.8182C37.6385 13.7898 37.3714 12.9886 36.8374 12.4148C36.3033 11.8352 35.5703 11.5455 34.6385 11.5455C33.9964 11.5455 33.4226 11.6847 32.9169 11.9631C32.4169 12.2415 32.022 12.6477 31.7322 13.1818C31.4425 13.7159 31.2976 14.3636 31.2976 15.125ZM48.6435 23.2727C47.4162 23.2727 46.3594 22.983 45.473 22.4034C44.5866 21.8239 43.9048 21.0256 43.4276 20.0085C42.9503 18.9915 42.7116 17.8295 42.7116 16.5227C42.7116 15.1932 42.956 14.0199 43.4446 13.0028C43.9389 11.9801 44.6264 11.1818 45.5071 10.608C46.3935 10.0284 47.4276 9.73864 48.6094 9.73864C49.5298 9.73864 50.3594 9.90909 51.098 10.25C51.8366 10.5909 52.4418 11.0682 52.9134 11.6818C53.3849 12.2955 53.6776 13.0114 53.7912 13.8295H51.7798C51.6264 13.233 51.2855 12.7045 50.7571 12.2443C50.2344 11.7784 49.5298 11.5455 48.6435 11.5455C47.8594 11.5455 47.1719 11.75 46.581 12.1591C45.9957 12.5625 45.5384 13.1335 45.2088 13.8722C44.8849 14.6051 44.723 15.4659 44.723 16.4545C44.723 17.4659 44.8821 18.3466 45.2003 19.0966C45.5241 19.8466 45.9787 20.429 46.5639 20.8438C47.1548 21.2585 47.848 21.4659 48.6435 21.4659C49.1662 21.4659 49.6406 21.375 50.0668 21.1932C50.4929 21.0114 50.8537 20.75 51.1491 20.4091C51.4446 20.0682 51.6548 19.6591 51.7798 19.1818H53.7912C53.6776 19.9545 53.3963 20.6506 52.9474 21.2699C52.5043 21.8835 51.9162 22.3722 51.1832 22.7358C50.456 23.0938 49.6094 23.2727 48.6435 23.2727ZM58.7429 15.125V23H56.7315V5.54545H58.7429V11.9545H58.9134C59.2202 11.2784 59.6804 10.7415 60.294 10.3438C60.9134 9.94034 61.7372 9.73864 62.7656 9.73864C63.6577 9.73864 64.4389 9.91761 65.1094 10.2756C65.7798 10.6278 66.2997 11.1705 66.669 11.9034C67.044 12.6307 67.2315 13.5568 67.2315 14.6818V23H65.2202V14.8182C65.2202 13.7784 64.9503 12.9744 64.4105 12.4062C63.8764 11.8324 63.1349 11.5455 62.1861 11.5455C61.527 11.5455 60.9361 11.6847 60.4134 11.9631C59.8963 12.2415 59.4872 12.6477 59.1861 13.1818C58.8906 13.7159 58.7429 14.3636 58.7429 15.125ZM83.3544 9.90909V11.6136H76.5703V9.90909H83.3544ZM78.5476 6.77273H80.5589V19.25C80.5589 19.8182 80.6413 20.2443 80.8061 20.5284C80.9766 20.8068 81.1925 20.9943 81.4538 21.0909C81.7209 21.1818 82.0021 21.2273 82.2976 21.2273C82.5192 21.2273 82.701 21.2159 82.843 21.1932C82.9851 21.1648 83.0987 21.142 83.1839 21.125L83.593 22.9318C83.4567 22.983 83.2663 23.0341 83.022 23.0852C82.7777 23.142 82.468 23.1705 82.093 23.1705C81.5249 23.1705 80.968 23.0483 80.4226 22.804C79.8828 22.5597 79.4339 22.1875 79.076 21.6875C78.7237 21.1875 78.5476 20.5568 78.5476 19.7955V6.77273ZM99.88 23V9.90909H101.823V11.9545H101.994C102.266 11.2557 102.707 10.7131 103.315 10.3267C103.923 9.93466 104.653 9.73864 105.505 9.73864C106.369 9.73864 107.087 9.93466 107.661 10.3267C108.241 10.7131 108.692 11.2557 109.016 11.9545H109.153C109.488 11.2784 109.991 10.7415 110.661 10.3438C111.332 9.94034 112.136 9.73864 113.073 9.73864C114.244 9.73864 115.201 10.1051 115.945 10.8381C116.69 11.5653 117.062 12.6989 117.062 14.2386V23H115.05V14.2386C115.05 13.2727 114.786 12.5824 114.258 12.1676C113.729 11.7528 113.107 11.5455 112.391 11.5455C111.471 11.5455 110.758 11.8239 110.252 12.3807C109.746 12.9318 109.494 13.6307 109.494 14.4773V23H107.448V14.0341C107.448 13.2898 107.207 12.6903 106.724 12.2358C106.241 11.7756 105.619 11.5455 104.857 11.5455C104.335 11.5455 103.846 11.6847 103.391 11.9631C102.942 12.2415 102.579 12.6278 102.3 13.1222C102.028 13.6108 101.891 14.1761 101.891 14.8182V23H99.88ZM126.228 23.2727C124.967 23.2727 123.879 22.9943 122.964 22.4375C122.055 21.875 121.353 21.0909 120.859 20.0852C120.37 19.0739 120.126 17.8977 120.126 16.5568C120.126 15.2159 120.37 14.0341 120.859 13.0114C121.353 11.983 122.04 11.1818 122.921 10.608C123.808 10.0284 124.842 9.73864 126.023 9.73864C126.705 9.73864 127.379 9.85227 128.043 10.0795C128.708 10.3068 129.313 10.6761 129.859 11.1875C130.404 11.6932 130.839 12.3636 131.163 13.1989C131.487 14.0341 131.648 15.0625 131.648 16.2841V17.1364H121.558V15.3977H129.603C129.603 14.6591 129.455 14 129.16 13.4205C128.87 12.8409 128.455 12.3835 127.915 12.0483C127.381 11.7131 126.751 11.5455 126.023 11.5455C125.222 11.5455 124.529 11.7443 123.944 12.142C123.364 12.5341 122.918 13.0455 122.606 13.6761C122.293 14.3068 122.137 14.983 122.137 15.7045V16.8636C122.137 17.8523 122.308 18.6903 122.648 19.3778C122.995 20.0597 123.475 20.5795 124.089 20.9375C124.702 21.2898 125.415 21.4659 126.228 21.4659C126.756 21.4659 127.234 21.392 127.66 21.2443C128.092 21.0909 128.464 20.8636 128.776 20.5625C129.089 20.2557 129.33 19.875 129.501 19.4205L131.444 19.9659C131.239 20.625 130.896 21.2045 130.413 21.7045C129.93 22.1989 129.333 22.5852 128.623 22.8636C127.913 23.1364 127.114 23.2727 126.228 23.2727Z" fill="black"/>
<path d="M2.11364 23H1.11364V24H2.11364V23ZM2.11364 5.54545V4.54545H1.11364V5.54545H2.11364ZM4.22727 5.54545H5.22727V4.54545H4.22727V5.54545ZM4.22727 21.125H3.22727V22.125H4.22727V21.125ZM12.3409 21.125H13.3409V20.125H12.3409V21.125ZM12.3409 23V24H13.3409V23H12.3409ZM3.11364 23V5.54545H1.11364V23H3.11364ZM2.11364 6.54545H4.22727V4.54545H2.11364V6.54545ZM3.22727 5.54545V21.125H5.22727V5.54545H3.22727ZM4.22727 22.125H12.3409V20.125H4.22727V22.125ZM11.3409 21.125V23H13.3409V21.125H11.3409ZM12.3409 22H2.11364V24H12.3409V22ZM23.5909 9.90909V8.90909H22.5909V9.90909H23.5909ZM25.6023 9.90909H26.6023V8.90909H25.6023V9.90909ZM25.6023 23V24H26.6023V23H25.6023ZM23.5909 23H22.5909V24H23.5909V23ZM23.5909 20.7841H24.5909V19.7841H23.5909V20.7841ZM23.4545 20.7841V19.7841H22.8147L22.5466 20.365L23.4545 20.7841ZM22.0227 22.4801L22.6019 23.2953L22.6067 23.2919L22.0227 22.4801ZM17.3864 22.6335L16.8902 23.5018L16.8961 23.5051L17.3864 22.6335ZM15.8864 20.9972L14.9905 21.4416L14.9919 21.4444L15.8864 20.9972ZM15.3409 9.90909V8.90909H14.3409V9.90909H15.3409ZM17.3523 9.90909H18.3523V8.90909H17.3523V9.90909ZM18.1534 20.375L17.4248 21.0599L17.4284 21.0637L18.1534 20.375ZM21.7415 20.8438L21.3021 19.9454L21.2982 19.9474L21.7415 20.8438ZM23.054 19.6676L22.226 19.1067L22.2219 19.1129L23.054 19.6676ZM24.5909 17.6477V9.90909H22.5909V17.6477H24.5909ZM23.5909 10.9091H25.6023V8.90909H23.5909V10.9091ZM24.6023 9.90909V23H26.6023V9.90909H24.6023ZM25.6023 22H23.5909V24H25.6023V22ZM24.5909 23V20.7841H22.5909V23H24.5909ZM23.5909 19.7841H23.4545V21.7841H23.5909V19.7841ZM22.5466 20.365C22.3185 20.8593 21.9594 21.2939 21.4388 21.6683L22.6067 23.2919C23.3815 22.7345 23.977 22.0385 24.3625 21.2031L22.5466 20.365ZM21.4435 21.6649C21.0024 21.9783 20.4005 22.1705 19.5682 22.1705V24.1705C20.7132 24.1705 21.7476 23.9023 22.6019 23.2953L21.4435 21.6649ZM19.5682 22.1705C18.9006 22.1705 18.3459 22.0259 17.8766 21.7619L16.8961 23.5051C17.6995 23.957 18.5994 24.1705 19.5682 24.1705V22.1705ZM17.8825 21.7653C17.4361 21.5102 17.0662 21.1207 16.7808 20.5499L14.9919 21.4444C15.4338 22.3282 16.0639 23.0296 16.8902 23.5018L17.8825 21.7653ZM16.7822 20.5527C16.5072 19.9985 16.3409 19.2395 16.3409 18.2273H14.3409C14.3409 19.4423 14.5382 20.5299 14.9906 21.4416L16.7822 20.5527ZM16.3409 18.2273V9.90909H14.3409V18.2273H16.3409ZM15.3409 10.9091H17.3523V8.90909H15.3409V10.9091ZM16.3523 9.90909V18.0909H18.3523V9.90909H16.3523ZM16.3523 18.0909C16.3523 19.2399 16.6792 20.2667 17.4248 21.0599L18.882 19.6901C18.5595 19.3469 18.3523 18.851 18.3523 18.0909H16.3523ZM17.4284 21.0637C18.1704 21.8448 19.1267 22.2273 20.2159 22.2273V20.2273C19.6347 20.2273 19.216 20.0416 18.8784 19.6863L17.4284 21.0637ZM20.2159 22.2273C20.8917 22.2273 21.5511 22.0535 22.1847 21.7401L21.2982 19.9474C20.8978 20.1454 20.5401 20.2273 20.2159 20.2273V22.2273ZM22.1809 21.742C22.8769 21.4016 23.4448 20.8841 23.886 20.2223L22.2219 19.1129C21.9586 19.5079 21.6515 19.7745 21.3021 19.9455L22.1809 21.742ZM23.8819 20.2285C24.3798 19.4935 24.5909 18.6098 24.5909 17.6477H22.5909C22.5909 18.3221 22.4441 18.7849 22.2261 19.1068L23.8819 20.2285ZM31.2976 23V24H32.2976V23H31.2976ZM29.2862 23H28.2862V24H29.2862V23ZM29.2862 9.90909V8.90909H28.2862V9.90909H29.2862ZM31.2294 9.90909H32.2294V8.90909H31.2294V9.90909ZM31.2294 11.9545H30.2294V12.9545H31.2294V11.9545ZM31.3999 11.9545V12.9545H32.0397L32.3078 12.3736L31.3999 11.9545ZM32.7976 10.3523L33.3399 11.1925L33.3452 11.189L32.7976 10.3523ZM37.5447 10.2841L37.0648 11.1614L37.0706 11.1646L37.5447 10.2841ZM39.0959 11.9205L38.2028 12.3704L38.2043 12.3732L39.0959 11.9205ZM39.6499 23V24H40.6499V23H39.6499ZM37.6385 23H36.6385V24H37.6385V23ZM36.8374 12.4148L36.102 13.0925L36.1053 13.0961L36.8374 12.4148ZM32.9169 11.9631L32.4346 11.087L32.4304 11.0894L32.9169 11.9631ZM31.7322 13.1818L30.8533 12.7049L30.8533 12.7049L31.7322 13.1818ZM30.2976 15.125V23H32.2976V15.125H30.2976ZM31.2976 22H29.2862V24H31.2976V22ZM30.2862 23V9.90909H28.2862V23H30.2862ZM29.2862 10.9091H31.2294V8.90909H29.2862V10.9091ZM30.2294 9.90909V11.9545H32.2294V9.90909H30.2294ZM31.2294 12.9545H31.3999V10.9545H31.2294V12.9545ZM32.3078 12.3736C32.5338 11.8839 32.8715 11.4948 33.3399 11.1925L32.2553 9.51209C31.4736 10.0166 30.8795 10.6956 30.4919 11.5355L32.3078 12.3736ZM33.3452 11.189C33.7625 10.9158 34.3622 10.7386 35.218 10.7386V8.73864C34.0966 8.73864 33.0826 8.97052 32.2499 9.51557L33.3452 11.189ZM35.218 10.7386C35.9653 10.7386 36.5704 10.891 37.0648 11.1614L38.0246 9.40677C37.1895 8.94995 36.2435 8.73864 35.218 8.73864V10.7386ZM37.0706 11.1646C37.5391 11.4168 37.9173 11.8038 38.2028 12.3704L39.9889 11.4705C39.5358 10.5712 38.8799 9.86727 38.0188 9.40362L37.0706 11.1646ZM38.2043 12.3732C38.4812 12.9185 38.6499 13.671 38.6499 14.6818H40.6499C40.6499 13.4654 40.4492 12.3769 39.9875 11.4677L38.2043 12.3732ZM38.6499 14.6818V23H40.6499V14.6818H38.6499ZM39.6499 22H37.6385V24H39.6499V22ZM38.6385 23V14.8182H36.6385V23H38.6385ZM38.6385 14.8182C38.6385 13.618 38.3239 12.5442 37.5694 11.7335L36.1053 13.0961C36.419 13.433 36.6385 13.9615 36.6385 14.8182H38.6385ZM37.5727 11.7371C36.8147 10.9146 35.7942 10.5455 34.6385 10.5455V12.5455C35.3464 12.5455 35.7918 12.7559 36.102 13.0925L37.5727 11.7371ZM34.6385 10.5455C33.8471 10.5455 33.1041 10.7185 32.4346 11.0871L33.3992 12.8391C33.7411 12.6508 34.1458 12.5455 34.6385 12.5455V10.5455ZM32.4304 11.0894C31.7542 11.4659 31.2277 12.0148 30.8533 12.7049L32.6112 13.6587C32.8163 13.2807 33.0796 13.017 33.4034 12.8368L32.4304 11.0894ZM30.8533 12.7049C30.4664 13.4179 30.2976 14.2385 30.2976 15.125H32.2976C32.2976 14.4888 32.4185 14.0139 32.6112 13.6587L30.8533 12.7049ZM45.473 22.4034L44.9258 23.2404L44.9258 23.2404L45.473 22.4034ZM43.4446 13.0028L42.5443 12.5677L42.5432 12.5698L43.4446 13.0028ZM45.5071 10.608L46.053 11.4458L46.0544 11.4449L45.5071 10.608ZM52.9134 11.6818L53.7062 11.0725L53.7062 11.0725L52.9134 11.6818ZM53.7912 13.8295V14.8295H54.9397L54.7817 13.692L53.7912 13.8295ZM51.7798 13.8295L50.8113 14.0786L51.0044 14.8295H51.7798V13.8295ZM50.7571 12.2443L50.0917 12.9909L50.1003 12.9984L50.7571 12.2443ZM46.581 12.1591L47.1485 12.9824L47.1502 12.9813L46.581 12.1591ZM45.2088 13.8722L44.2956 13.4647L44.2941 13.468L45.2088 13.8722ZM45.2003 19.0966L44.2797 19.4871L44.2822 19.493L45.2003 19.0966ZM46.5639 20.8438L45.9857 21.6596L45.9894 21.6622L46.5639 20.8438ZM50.0668 21.1932L49.6743 20.2734L49.6743 20.2734L50.0668 21.1932ZM51.1491 20.4091L51.9048 21.064L51.9048 21.064L51.1491 20.4091ZM51.7798 19.1818V18.1818H51.008L50.8125 18.9285L51.7798 19.1818ZM53.7912 19.1818L54.7806 19.3273L54.949 18.1818H53.7912V19.1818ZM52.9474 21.2699L52.1377 20.683L52.1368 20.6844L52.9474 21.2699ZM51.1832 22.7358L51.6248 23.633L51.6277 23.6316L51.1832 22.7358ZM48.6435 22.2727C47.579 22.2727 46.7193 22.0235 46.0203 21.5664L44.9258 23.2404C45.9994 23.9424 47.2534 24.2727 48.6435 24.2727V22.2727ZM46.0203 21.5664C45.2987 21.0947 44.7363 20.4435 44.3328 19.5837L42.5223 20.4333C43.0734 21.6077 43.8746 22.5531 44.9258 23.2404L46.0203 21.5664ZM44.3328 19.5837C43.9273 18.7196 43.7116 17.7065 43.7116 16.5227H41.7116C41.7116 17.9525 41.9732 19.2633 42.5223 20.4333L44.3328 19.5837ZM43.7116 16.5227C43.7116 15.3166 43.9328 14.2958 44.346 13.4359L42.5432 12.5698C41.9791 13.744 41.7116 15.0698 41.7116 16.5227H43.7116ZM44.345 13.438C44.7666 12.5656 45.3372 11.9122 46.053 11.4458L44.9612 9.77013C43.9156 10.4514 43.1112 11.3947 42.5443 12.5677L44.345 13.438ZM46.0544 11.4449C46.7595 10.9838 47.5986 10.7386 48.6094 10.7386V8.73864C47.2565 8.73864 46.0274 9.07297 44.9599 9.77098L46.0544 11.4449ZM48.6094 10.7386C49.4042 10.7386 50.088 10.8852 50.679 11.158L51.5171 9.34204C50.6308 8.93298 49.6555 8.73864 48.6094 8.73864V10.7386ZM50.679 11.158C51.2784 11.4346 51.7526 11.8125 52.1205 12.2912L53.7062 11.0725C53.131 10.3239 52.3949 9.74719 51.5171 9.34204L50.679 11.158ZM52.1205 12.2912C52.4793 12.7581 52.7093 13.3087 52.8007 13.9671L54.7817 13.692C54.6459 12.714 54.2906 11.8328 53.7062 11.0725L52.1205 12.2912ZM53.7912 12.8295H51.7798V14.8295H53.7912V12.8295ZM52.7483 13.5805C52.5378 12.7617 52.0732 12.0645 51.4139 11.4902L50.1003 12.9984C50.4978 13.3446 50.7151 13.7042 50.8113 14.0786L52.7483 13.5805ZM51.4225 11.4978C50.6718 10.8287 49.7078 10.5455 48.6435 10.5455V12.5455C49.3519 12.5455 49.797 12.7281 50.0917 12.9908L51.4225 11.4978ZM48.6435 10.5455C47.6754 10.5455 46.7852 10.8015 46.0118 11.3369L47.1502 12.9813C47.5586 12.6985 48.0434 12.5455 48.6435 12.5455V10.5455ZM46.0134 11.3357C45.257 11.8572 44.6894 12.582 44.2956 13.4647L46.122 14.2796C46.3873 13.6851 46.7345 13.2678 47.1485 12.9824L46.0134 11.3357ZM44.2941 13.468C43.9025 14.3544 43.723 15.3584 43.723 16.4545H45.723C45.723 15.5734 45.8674 14.8559 46.1235 14.2763L44.2941 13.468ZM43.723 16.4545C43.723 17.5687 43.8981 18.5877 44.2797 19.4871L46.1209 18.706C45.8661 18.1055 45.723 17.3631 45.723 16.4545H43.723ZM44.2822 19.493C44.6685 20.3875 45.231 21.1247 45.9857 21.6596L47.1422 20.0279C46.7264 19.7332 46.3798 19.3057 46.1183 18.7002L44.2822 19.493ZM45.9894 21.6622C46.7657 22.2071 47.6643 22.4659 48.6435 22.4659V20.4659C48.0317 20.4659 47.544 20.3099 47.1384 20.0253L45.9894 21.6622ZM48.6435 22.4659C49.2838 22.4659 49.894 22.3541 50.4592 22.113L49.6743 20.2734C49.3872 20.3959 49.0486 20.4659 48.6435 20.4659V22.4659ZM50.4592 22.113C51.0211 21.8732 51.5072 21.5228 51.9048 21.064L50.3935 19.7542C50.2002 19.9772 49.9647 20.1495 49.6743 20.2734L50.4592 22.113ZM51.9048 21.064C52.3098 20.5967 52.5871 20.0467 52.7472 19.4352L50.8125 18.9285C50.7226 19.2715 50.5794 19.5397 50.3935 19.7542L51.9048 21.064ZM51.7798 20.1818H53.7912V18.1818H51.7798V20.1818ZM52.8018 19.0363C52.7111 19.6531 52.49 20.197 52.1377 20.683L53.7571 21.8567C54.3026 21.1041 54.644 20.256 54.7806 19.3273L52.8018 19.0363ZM52.1368 20.6844C51.7962 21.1559 51.3384 21.5425 50.7388 21.84L51.6277 23.6316C52.494 23.2018 53.2123 22.6112 53.7581 21.8554L52.1368 20.6844ZM50.7416 21.8386C50.1757 22.1172 49.4853 22.2727 48.6435 22.2727V24.2727C49.7334 24.2727 50.7363 24.0703 51.6248 23.633L50.7416 21.8386ZM58.7429 23V24H59.7429V23H58.7429ZM56.7315 23H55.7315V24H56.7315V23ZM56.7315 5.54545V4.54545H55.7315V5.54545H56.7315ZM58.7429 5.54545H59.7429V4.54545H58.7429V5.54545ZM58.7429 11.9545H57.7429V12.9545H58.7429V11.9545ZM58.9134 11.9545V12.9545H59.5577L59.824 12.3678L58.9134 11.9545ZM60.294 10.3438L60.8379 11.1829L60.8398 11.1817L60.294 10.3438ZM65.1094 10.2756L64.6384 11.1577L64.6442 11.1608L65.1094 10.2756ZM66.669 11.9034L65.776 12.3534L65.7802 12.3617L66.669 11.9034ZM67.2315 23V24H68.2315V23H67.2315ZM65.2202 23H64.2202V24H65.2202V23ZM64.4105 12.4062L63.6785 13.0876L63.6855 13.095L64.4105 12.4062ZM60.4134 11.9631L59.9433 11.0804L59.9393 11.0826L60.4134 11.9631ZM59.1861 13.1818L58.315 12.6907L58.311 12.6978L59.1861 13.1818ZM57.7429 15.125V23H59.7429V15.125H57.7429ZM58.7429 22H56.7315V24H58.7429V22ZM57.7315 23V5.54545H55.7315V23H57.7315ZM56.7315 6.54545H58.7429V4.54545H56.7315V6.54545ZM57.7429 5.54545V11.9545H59.7429V5.54545H57.7429ZM58.7429 12.9545H58.9134V10.9545H58.7429V12.9545ZM59.824 12.3678C60.0531 11.8629 60.3873 11.475 60.8379 11.1829L59.7501 9.5046C58.9735 10.008 58.3873 10.6939 58.0027 11.5413L59.824 12.3678ZM60.8398 11.1817C61.2448 10.9179 61.858 10.7386 62.7656 10.7386V8.73864C61.6165 8.73864 60.5819 8.96281 59.7482 9.50583L60.8398 11.1817ZM62.7656 10.7386C63.522 10.7386 64.1361 10.8896 64.6384 11.1577L65.5804 9.39342C64.7417 8.94567 63.7934 8.73864 62.7656 8.73864V10.7386ZM64.6442 11.1608C65.1146 11.4079 65.4922 11.7902 65.776 12.3534L67.5621 11.4534C67.1072 10.5508 66.4451 9.84776 65.5745 9.39032L64.6442 11.1608ZM65.7802 12.3617C66.06 12.9043 66.2315 13.6596 66.2315 14.6818H68.2315C68.2315 13.454 68.0281 12.3571 67.5578 11.4451L65.7802 12.3617ZM66.2315 14.6818V23H68.2315V14.6818H66.2315ZM67.2315 22H65.2202V24H67.2315V22ZM66.2202 23V14.8182H64.2202V23H66.2202ZM66.2202 14.8182C66.2202 13.6081 65.9033 12.5257 65.1355 11.7175L63.6855 13.095C63.9973 13.4231 64.2202 13.9487 64.2202 14.8182H66.2202ZM65.1425 11.725C64.3802 10.9059 63.3495 10.5455 62.1861 10.5455V12.5455C62.9203 12.5455 63.3726 12.7589 63.6785 13.0875L65.1425 11.725ZM62.1861 10.5455C61.3819 10.5455 60.6264 10.7166 59.9433 11.0804L60.8834 12.8457C61.2457 12.6527 61.6721 12.5455 62.1861 12.5455V10.5455ZM59.9393 11.0826C59.2482 11.4547 58.7047 11.9995 58.315 12.6907L60.0572 13.673C60.2697 13.2959 60.5444 13.0282 60.8875 12.8435L59.9393 11.0826ZM58.311 12.6978C57.9157 13.4124 57.7429 14.2356 57.7429 15.125H59.7429C59.7429 14.4917 59.8655 14.0195 60.0611 13.6659L58.311 12.6978ZM83.3544 9.90909H84.3544V8.90909H83.3544V9.90909ZM83.3544 11.6136V12.6136H84.3544V11.6136H83.3544ZM76.5703 11.6136H75.5703V12.6136H76.5703V11.6136ZM76.5703 9.90909V8.90909H75.5703V9.90909H76.5703ZM78.5476 6.77273V5.77273H77.5476V6.77273H78.5476ZM80.5589 6.77273H81.5589V5.77273H80.5589V6.77273ZM80.8061 20.5284L79.9411 21.0301L79.947 21.0404L79.9533 21.0506L80.8061 20.5284ZM81.4538 21.0909L81.1072 22.0289L81.1193 22.0334L81.1316 22.0376L81.4538 21.0909ZM82.843 21.1932L83.001 22.1806L83.0202 22.1776L83.0392 22.1738L82.843 21.1932ZM83.1839 21.125L84.1593 20.9042L83.9439 19.9532L82.9878 20.1444L83.1839 21.125ZM83.593 22.9318L83.9442 23.8681L84.761 23.5618L84.5684 22.711L83.593 22.9318ZM83.022 23.0852L82.8172 22.1064L82.8063 22.1087L82.7955 22.1112L83.022 23.0852ZM80.4226 22.804L80.0102 23.715L80.0138 23.7166L80.4226 22.804ZM79.076 21.6875L78.2585 22.2635L78.2629 22.2696L79.076 21.6875ZM82.3544 9.90909V11.6136H84.3544V9.90909H82.3544ZM83.3544 10.6136H76.5703V12.6136H83.3544V10.6136ZM77.5703 11.6136V9.90909H75.5703V11.6136H77.5703ZM76.5703 10.9091H83.3544V8.90909H76.5703V10.9091ZM78.5476 7.77273H80.5589V5.77273H78.5476V7.77273ZM79.5589 6.77273V19.25H81.5589V6.77273H79.5589ZM79.5589 19.25C79.5589 19.8821 79.6448 20.5194 79.9411 21.0301L81.6711 20.0267C81.6378 19.9693 81.5589 19.7543 81.5589 19.25H79.5589ZM79.9533 21.0506C80.22 21.4862 80.6004 21.8416 81.1072 22.0289L81.8005 20.1529C81.7846 20.147 81.7331 20.1274 81.659 20.0063L79.9533 21.0506ZM81.1316 22.0376C81.5072 22.1654 81.8977 22.2273 82.2976 22.2273V20.2273C82.1065 20.2273 81.9345 20.1982 81.7761 20.1443L81.1316 22.0376ZM82.2976 22.2273C82.5471 22.2273 82.7868 22.2149 83.001 22.1806L82.685 20.2057C82.6152 20.2169 82.4913 20.2273 82.2976 20.2273V22.2273ZM83.0392 22.1738C83.1812 22.1454 83.2948 22.1226 83.3801 22.1056L82.9878 20.1444C82.9026 20.1615 82.789 20.1842 82.6469 20.2126L83.0392 22.1738ZM82.2086 21.3458L82.6177 23.1526L84.5684 22.711L84.1593 20.9042L82.2086 21.3458ZM83.2419 21.9955C83.175 22.0206 83.0415 22.0595 82.8172 22.1064L83.2269 24.064C83.4912 24.0087 83.7384 23.9453 83.9442 23.8681L83.2419 21.9955ZM82.7955 22.1112C82.6523 22.1445 82.4254 22.1705 82.093 22.1705V24.1705C82.5107 24.1705 82.9031 24.1396 83.2485 24.0592L82.7955 22.1112ZM82.093 22.1705C81.673 22.1705 81.2551 22.0811 80.8314 21.8913L80.0138 23.7166C80.681 24.0155 81.3767 24.1705 82.093 24.1705V22.1705ZM80.8349 21.893C80.4616 21.7239 80.1488 21.4681 79.8891 21.1054L78.2629 22.2696C78.7191 22.9069 79.3041 23.3954 80.0102 23.715L80.8349 21.893ZM79.8935 21.1115C79.6863 20.8175 79.5476 20.4015 79.5476 19.7955H77.5476C77.5476 20.7121 77.7612 21.5575 78.2585 22.2635L79.8935 21.1115ZM79.5476 19.7955V6.77273H77.5476V19.7955H79.5476ZM99.88 23H98.88V24H99.88V23ZM99.88 9.90909V8.90909H98.88V9.90909H99.88ZM101.823 9.90909H102.823V8.90909H101.823V9.90909ZM101.823 11.9545H100.823V12.9545H101.823V11.9545ZM101.994 11.9545V12.9545H102.677L102.925 12.3181L101.994 11.9545ZM103.315 10.3267L103.851 11.1707L103.857 11.1671L103.315 10.3267ZM107.661 10.3267L107.097 11.1525L107.107 11.1588L107.661 10.3267ZM109.016 11.9545L108.109 12.375L108.378 12.9545H109.016V11.9545ZM109.153 11.9545V12.9545H109.773L110.049 12.3987L109.153 11.9545ZM110.661 10.3438L111.171 11.2038L111.177 11.2006L110.661 10.3438ZM115.945 10.8381L115.244 11.5506L115.246 11.5533L115.945 10.8381ZM117.062 23V24H118.062V23H117.062ZM115.05 23H114.05V24H115.05V23ZM114.258 12.1676L113.64 12.9542L113.64 12.9542L114.258 12.1676ZM110.252 12.3807L110.989 13.0568L110.992 13.053L110.252 12.3807ZM109.494 23V24H110.494V23H109.494ZM107.448 23H106.448V24H107.448V23ZM106.724 12.2358L106.034 12.9597L106.038 12.964L106.724 12.2358ZM103.391 11.9631L102.869 11.1103L102.864 11.1133L103.391 11.9631ZM102.3 13.1222L101.429 12.6314L101.427 12.6348L102.3 13.1222ZM101.891 23V24H102.891V23H101.891ZM100.88 23V9.90909H98.88V23H100.88ZM99.88 10.9091H101.823V8.90909H99.88V10.9091ZM100.823 9.90909V11.9545H102.823V9.90909H100.823ZM101.823 12.9545H101.994V10.9545H101.823V12.9545ZM102.925 12.3181C103.124 11.8085 103.43 11.438 103.851 11.1707L102.778 9.48272C101.983 9.98809 101.409 10.7028 101.062 11.591L102.925 12.3181ZM103.857 11.1671C104.276 10.8966 104.81 10.7386 105.505 10.7386V8.73864C104.495 8.73864 103.569 8.97267 102.773 9.48629L103.857 11.1671ZM105.505 10.7386C106.216 10.7386 106.726 10.8988 107.097 11.1524L108.225 9.501C107.449 8.97052 106.521 8.73864 105.505 8.73864V10.7386ZM107.107 11.1588C107.517 11.4324 107.854 11.825 108.109 12.375L109.924 11.5341C109.531 10.6864 108.965 9.99374 108.216 9.49465L107.107 11.1588ZM109.016 12.9545H109.153V10.9545H109.016V12.9545ZM110.049 12.3987C110.295 11.9015 110.661 11.5065 111.171 11.2038L110.151 9.4837C109.32 9.97648 108.681 10.6553 108.257 11.5103L110.049 12.3987ZM111.177 11.2006C111.663 10.9079 112.281 10.7386 113.073 10.7386V8.73864C111.99 8.73864 111 8.97278 110.146 9.4869L111.177 11.2006ZM113.073 10.7386C114.016 10.7386 114.71 11.0247 115.244 11.5506L116.647 10.1255C115.692 9.18551 114.472 8.73864 113.073 8.73864V10.7386ZM115.246 11.5533C115.722 12.0183 116.062 12.8393 116.062 14.2386H118.062C118.062 12.5584 117.657 11.1124 116.644 10.1228L115.246 11.5533ZM116.062 14.2386V23H118.062V14.2386H116.062ZM117.062 22H115.05V24H117.062V22ZM116.05 23V14.2386H114.05V23H116.05ZM116.05 14.2386C116.05 13.1063 115.738 12.0579 114.875 11.381L113.64 12.9542C113.835 13.1069 114.05 13.4392 114.05 14.2386H116.05ZM114.875 11.381C114.159 10.8186 113.315 10.5455 112.391 10.5455V12.5455C112.899 12.5455 113.3 12.6871 113.64 12.9542L114.875 11.381ZM112.391 10.5455C111.257 10.5455 110.248 10.8973 109.512 11.7084L110.992 13.053C111.267 12.7505 111.685 12.5455 112.391 12.5455V10.5455ZM109.515 11.7046C108.818 12.4648 108.494 13.4158 108.494 14.4773H110.494C110.494 13.8455 110.675 13.3988 110.989 13.0568L109.515 11.7046ZM108.494 14.4773V23H110.494V14.4773H108.494ZM109.494 22H107.448V24H109.494V22ZM108.448 23V14.0341H106.448V23H108.448ZM108.448 14.0341C108.448 13.0512 108.118 12.1752 107.409 11.5076L106.038 12.964C106.295 13.2055 106.448 13.5283 106.448 14.0341H108.448ZM107.414 11.5119C106.718 10.8491 105.836 10.5455 104.857 10.5455V12.5455C105.401 12.5455 105.763 12.702 106.034 12.9597L107.414 11.5119ZM104.857 10.5455C104.146 10.5455 103.478 10.7376 102.869 11.1103L103.914 12.8158C104.214 12.6317 104.523 12.5455 104.857 12.5455V10.5455ZM102.864 11.1133C102.262 11.487 101.784 12.0015 101.429 12.6314L103.172 13.6129C103.374 13.2542 103.623 12.996 103.918 12.8129L102.864 11.1133ZM101.427 12.6348C101.06 13.2931 100.891 14.031 100.891 14.8182H102.891C102.891 14.3213 102.996 13.9284 103.174 13.6095L101.427 12.6348ZM100.891 14.8182V23H102.891V14.8182H100.891ZM101.891 22H99.88V24H101.891V22ZM122.964 22.4375L122.438 23.2879L122.444 23.2917L122.964 22.4375ZM120.859 20.0852L119.958 20.5203L119.961 20.5263L120.859 20.0852ZM120.859 13.0114L119.957 12.5781L119.956 12.5803L120.859 13.0114ZM122.921 10.608L123.467 11.4458L123.468 11.4449L122.921 10.608ZM128.043 10.0795L128.367 9.13332L128.367 9.13332L128.043 10.0795ZM129.859 11.1875L129.175 11.917L129.179 11.9208L129.859 11.1875ZM131.163 13.1989L132.095 12.8373L132.095 12.8373L131.163 13.1989ZM131.648 17.1364V18.1364H132.648V17.1364H131.648ZM121.558 17.1364H120.558V18.1364H121.558V17.1364ZM121.558 15.3977V14.3977H120.558V15.3977H121.558ZM129.603 15.3977V16.3977H130.603V15.3977H129.603ZM129.16 13.4205L128.265 13.8677L128.269 13.8746L129.16 13.4205ZM127.915 12.0483L127.384 12.8953L127.388 12.8978L127.915 12.0483ZM123.944 12.142L124.504 12.9703L124.506 12.9691L123.944 12.142ZM122.606 13.6761L121.71 13.2322L121.71 13.2322L122.606 13.6761ZM122.648 19.3778L121.752 19.8221L121.757 19.831L122.648 19.3778ZM124.089 20.9375L123.585 21.8013L123.591 21.8048L124.089 20.9375ZM127.66 21.2443L127.987 22.1892L127.995 22.1866L127.66 21.2443ZM128.776 20.5625L129.47 21.2826L129.477 21.2761L128.776 20.5625ZM129.501 19.4205L129.771 18.4577L128.887 18.2095L128.564 19.0693L129.501 19.4205ZM131.444 19.9659L132.399 20.2623L132.704 19.2808L131.714 19.0031L131.444 19.9659ZM130.413 21.7045L131.128 22.4034L131.132 22.3993L130.413 21.7045ZM128.623 22.8636L128.981 23.7972L128.988 23.7947L128.623 22.8636ZM126.228 22.2727C125.117 22.2727 124.216 22.0289 123.484 21.5833L122.444 23.2917C123.541 23.9597 124.816 24.2727 126.228 24.2727V22.2727ZM123.49 21.5871C122.748 21.1283 122.172 20.4897 121.756 19.6441L119.961 20.5263C120.534 21.6921 121.361 22.6217 122.438 23.2879L123.49 21.5871ZM121.759 19.6502C121.347 18.7983 121.126 17.7759 121.126 16.5568H119.126C119.126 18.0195 119.393 19.3494 119.958 20.5203L121.759 19.6502ZM121.126 16.5568C121.126 15.338 121.347 14.3081 121.761 13.4425L119.956 12.5803C119.393 13.7601 119.126 15.0938 119.126 16.5568H121.126ZM121.76 13.4446C122.182 12.5664 122.753 11.9113 123.467 11.4458L122.375 9.77013C121.328 10.4523 120.524 11.3995 119.957 12.5781L121.76 13.4446ZM123.468 11.4449C124.174 10.9838 125.013 10.7386 126.023 10.7386V8.73864C124.671 8.73864 123.441 9.07297 122.374 9.77098L123.468 11.4449ZM126.023 10.7386C126.592 10.7386 127.156 10.833 127.72 11.0258L128.367 9.13332C127.601 8.87154 126.819 8.73864 126.023 8.73864V10.7386ZM127.72 11.0258C128.242 11.2043 128.726 11.4963 129.175 11.917L130.543 10.458C129.9 9.85597 129.174 9.40936 128.367 9.13332L127.72 11.0258ZM129.179 11.9208C129.593 12.3044 129.95 12.8381 130.23 13.5604L132.095 12.8373C131.727 11.8892 131.216 11.082 130.539 10.4542L129.179 11.9208ZM130.23 13.5604C130.496 14.2467 130.648 15.1441 130.648 16.2841H132.648C132.648 14.9809 132.477 13.8214 132.095 12.8373L130.23 13.5604ZM130.648 16.2841V17.1364H132.648V16.2841H130.648ZM131.648 16.1364H121.558V18.1364H131.648V16.1364ZM122.558 17.1364V15.3977H120.558V17.1364H122.558ZM121.558 16.3977H129.603V14.3977H121.558V16.3977ZM130.603 15.3977C130.603 14.5228 130.427 13.7045 130.051 12.9663L128.269 13.8746C128.483 14.2955 128.603 14.7954 128.603 15.3977H130.603ZM130.054 12.9732C129.683 12.2317 129.143 11.6336 128.443 11.1988L127.388 12.8978C127.767 13.1334 128.057 13.4501 128.265 13.8677L130.054 12.9732ZM128.447 11.2013C127.73 10.7515 126.909 10.5455 126.023 10.5455V12.5455C126.592 12.5455 127.032 12.6746 127.384 12.8953L128.447 11.2013ZM126.023 10.5455C125.049 10.5455 124.154 10.7901 123.382 11.315L124.506 12.9691C124.904 12.6986 125.395 12.5455 126.023 12.5455V10.5455ZM123.384 11.3138C122.66 11.8033 122.099 12.4475 121.71 13.2322L123.502 14.1201C123.738 13.6434 124.069 13.2649 124.504 12.9703L123.384 11.3138ZM121.71 13.2322C121.327 14.0044 121.137 14.8329 121.137 15.7045H123.137C123.137 15.133 123.26 14.6092 123.502 14.1201L121.71 13.2322ZM121.137 15.7045V16.8636H123.137V15.7045H121.137ZM121.137 16.8636C121.137 17.9634 121.326 18.9626 121.753 19.8221L123.544 18.9336C123.289 18.4181 123.137 17.7411 123.137 16.8636H121.137ZM121.757 19.831C122.184 20.6704 122.793 21.3391 123.585 21.8013L124.593 20.0737C124.158 19.82 123.806 19.449 123.54 18.9247L121.757 19.831ZM123.591 21.8048C124.377 22.2562 125.267 22.4659 126.228 22.4659V20.4659C125.564 20.4659 125.028 20.3233 124.587 20.0702L123.591 21.8048ZM126.228 22.4659C126.849 22.4659 127.44 22.3791 127.987 22.1892L127.332 20.2995C127.028 20.405 126.664 20.4659 126.228 20.4659V22.4659ZM127.995 22.1866C128.553 21.9883 129.049 21.688 129.47 21.2826L128.082 19.8424C127.878 20.0393 127.63 20.1936 127.325 20.302L127.995 22.1866ZM129.477 21.2761C129.904 20.8564 130.221 20.3477 130.437 19.7716L128.564 19.0693C128.44 19.4023 128.273 19.6549 128.076 19.8489L129.477 21.2761ZM129.23 20.3832L131.174 20.9287L131.714 19.0031L129.771 18.4577L129.23 20.3832ZM130.489 19.6695C130.331 20.1781 130.068 20.6215 129.693 21.0098L131.132 22.3993C131.723 21.7876 132.148 21.0719 132.399 20.2623L130.489 19.6695ZM129.697 21.0057C129.323 21.3886 128.85 21.7005 128.258 21.9326L128.988 23.7947C129.816 23.47 130.536 23.0091 131.128 22.4034L129.697 21.0057ZM128.264 21.9301C127.686 22.1523 127.012 22.2727 126.228 22.2727V24.2727C127.217 24.2727 128.14 24.1204 128.981 23.7972L128.264 21.9301Z" fill="black"/>
<rect x="89" y="11" width="5" height="12" fill="black"/>
<circle cx="91.5" cy="6.5" r="2.5" fill="#22D534"/>
</svg>
