<svg width="164" height="44" viewBox="0 0 164 44" fill="none" xmlns="http://www.w3.org/2000/svg">
<rect width="164" height="44" fill="white"/>
<path d="M12.892 17.314L17.534 17.38C19.9393 17.38 21.6993 17.292 22.814 17.116C22.9753 17.424 23.056 17.776 23.056 18.172C23.056 18.568 22.88 18.9273 22.528 19.25C22.176 19.558 21.7507 19.712 21.252 19.712L18.722 19.426C18.722 19.5287 18.6853 19.9833 18.612 20.79C18.4067 22.77 18.304 24.7573 18.304 26.752C18.304 28.7467 18.458 30.7413 18.766 32.736C18.282 32.912 17.776 33 17.248 33C16.72 33 16.2653 32.8533 15.884 32.56C15.5027 32.252 15.312 31.7973 15.312 31.196C15.312 30.58 15.3853 29.502 15.532 27.962C15.6787 26.422 15.752 24.926 15.752 23.474C15.752 22.0073 15.6787 20.6433 15.532 19.382C13.7573 19.47 12.3713 19.7193 11.374 20.13C11.198 19.7927 11.11 19.4187 11.11 19.008C11.11 18.5827 11.2787 18.194 11.616 17.842C11.9533 17.49 12.3787 17.314 12.892 17.314ZM26.3507 17.314L30.9927 17.38C33.398 17.38 35.158 17.292 36.2727 17.116C36.434 17.424 36.5147 17.776 36.5147 18.172C36.5147 18.568 36.3387 18.9273 35.9867 19.25C35.6347 19.558 35.2093 19.712 34.7107 19.712L32.1807 19.426C32.1807 19.5287 32.144 19.9833 32.0707 20.79C31.8653 22.77 31.7627 24.7573 31.7627 26.752C31.7627 28.7467 31.9167 30.7413 32.2247 32.736C31.7407 32.912 31.2347 33 30.7067 33C30.1787 33 29.724 32.8533 29.3427 32.56C28.9613 32.252 28.7707 31.7973 28.7707 31.196C28.7707 30.58 28.844 29.502 28.9907 27.962C29.1373 26.422 29.2107 24.926 29.2107 23.474C29.2107 22.0073 29.1373 20.6433 28.9907 19.382C27.216 19.47 25.83 19.7193 24.8327 20.13C24.6567 19.7927 24.5687 19.4187 24.5687 19.008C24.5687 18.5827 24.7373 18.194 25.0747 17.842C25.412 17.49 25.8373 17.314 26.3507 17.314ZM64.9923 17.116C66.2683 17.116 67.383 17.49 68.3363 18.238C69.2896 18.986 69.7663 19.954 69.7663 21.142C69.7663 21.7727 69.5903 22.2933 69.2383 22.704C68.8863 23.1147 68.4536 23.32 67.9403 23.32C67.427 23.32 67.0163 23.254 66.7083 23.122C66.7523 22.8873 66.7743 22.638 66.7743 22.374C66.7596 21.45 66.5323 20.702 66.0923 20.13C65.6523 19.5433 65.007 19.25 64.1563 19.25C63.3203 19.25 62.543 19.5213 61.8243 20.064C61.399 20.68 61.069 21.4867 60.8343 22.484C60.5996 23.4813 60.4823 24.464 60.4823 25.432C60.4823 27.0453 60.7903 28.402 61.4063 29.502C62.037 30.5873 63.0123 31.13 64.3323 31.13C65.5496 31.13 66.371 30.668 66.7963 29.744C67.1923 28.9373 67.3903 27.8667 67.3903 26.532C68.1383 26.532 68.7616 26.6713 69.2603 26.95C69.759 27.214 70.0083 27.654 70.0083 28.27C70.0083 29.7073 69.3776 30.9027 68.1163 31.856C66.855 32.7947 65.4323 33.264 63.8483 33.264C61.7803 33.264 60.211 32.582 59.1403 31.218C58.0696 29.8393 57.5343 27.9767 57.5343 25.63C57.5343 23.2833 58.2016 21.2813 59.5363 19.624C60.8856 17.952 62.7043 17.116 64.9923 17.116ZM76.571 32.736C76.1017 32.912 75.603 33 75.075 33C74.547 33 74.085 32.8313 73.689 32.494C73.3077 32.1567 73.117 31.6947 73.117 31.108C73.117 30.5213 73.1903 29.3993 73.337 27.742C73.4837 26.07 73.557 24.7353 73.557 23.738C73.557 21.1713 73.403 19.14 73.095 17.644C73.5643 17.468 74.063 17.38 74.591 17.38C75.119 17.38 75.5737 17.5487 75.955 17.886C76.351 18.2233 76.549 18.6413 76.549 19.14C76.549 19.624 76.527 20.0933 76.483 20.548C76.4537 21.0027 76.4097 21.5233 76.351 22.11C76.2923 22.6967 76.2483 23.21 76.219 23.65C76.8057 23.7087 77.8177 23.738 79.255 23.738C80.6923 23.738 81.7997 23.6793 82.577 23.562C82.577 21.23 82.423 19.2133 82.115 17.512C82.5843 17.336 83.083 17.248 83.611 17.248C84.139 17.248 84.5937 17.4167 84.975 17.754C85.371 18.0913 85.569 18.5607 85.569 19.162C85.569 19.7487 85.4957 20.7973 85.349 22.308C85.2023 23.8187 85.129 25.0287 85.129 25.938C85.129 28.8127 85.283 31.1227 85.591 32.868C85.1217 33.044 84.623 33.132 84.095 33.132C83.567 33.132 83.105 32.9633 82.709 32.626C82.3277 32.2887 82.137 31.8413 82.137 31.284C82.137 30.7267 82.1957 29.8173 82.313 28.556C82.4303 27.2947 82.5037 26.4293 82.533 25.96C81.0957 25.8573 78.9543 25.806 76.109 25.806V26.378C76.109 28.974 76.263 31.0933 76.571 32.736ZM97.4375 25.696L99.7915 25.52C100.671 25.52 101.111 25.9673 101.111 26.862C101.111 27.3753 101.045 28.1747 100.913 29.26C100.781 30.3453 100.715 31.2253 100.715 31.9C100.349 31.9587 99.5275 32.1787 98.2515 32.56C96.9902 32.9413 95.9342 33.132 95.0835 33.132C93.0008 33.132 91.4242 32.4867 90.3535 31.196C89.2975 29.9053 88.7695 28.1453 88.7695 25.916C88.7695 24.332 89.0555 22.88 89.6275 21.56C90.2142 20.24 91.0795 19.1693 92.2235 18.348C93.3675 17.5267 94.6288 17.116 96.0075 17.116C97.4008 17.116 98.5595 17.4387 99.4835 18.084C100.422 18.7293 100.891 19.602 100.891 20.702C100.891 21.318 100.708 21.8387 100.341 22.264C99.9895 22.6747 99.5348 22.88 98.9775 22.88C98.4202 22.88 98.0315 22.814 97.8115 22.682C97.8555 22.418 97.8775 22.154 97.8775 21.89C97.8775 21.1127 97.6575 20.482 97.2175 19.998C96.7775 19.4993 96.1542 19.25 95.3475 19.25C94.5408 19.25 93.7782 19.5213 93.0595 20.064C92.6342 20.6653 92.3042 21.4867 92.0695 22.528C91.8348 23.5693 91.7175 24.5813 91.7175 25.564C91.7175 27.148 92.0255 28.4533 92.6415 29.48C93.2575 30.492 94.2328 30.998 95.5675 30.998C96.5502 30.998 97.4668 30.712 98.3175 30.14C98.3762 29.568 98.4055 28.7467 98.4055 27.676C97.8188 27.852 97.3642 27.94 97.0415 27.94C96.2348 27.94 95.8315 27.5147 95.8315 26.664C95.8315 26.2973 95.9048 25.9087 96.0515 25.498C96.4475 25.63 96.9095 25.696 97.4375 25.696ZM104.758 22.066C105.228 21.934 105.697 21.868 106.166 21.868C106.65 21.868 107.061 22.0147 107.398 22.308C107.736 22.6013 107.904 22.9827 107.904 23.452C107.904 23.9067 107.824 24.706 107.662 25.85C107.516 26.9793 107.442 27.8593 107.442 28.49C107.442 30.1327 107.596 31.548 107.904 32.736C107.45 32.912 106.958 33 106.43 33C105.902 33 105.484 32.8827 105.176 32.648C104.868 32.3987 104.714 32.0467 104.714 31.592C104.714 31.1227 104.802 30.36 104.978 29.304C105.154 28.248 105.242 27.3753 105.242 26.686C105.242 24.8527 105.081 23.3127 104.758 22.066ZM105.044 17.094C105.558 16.8593 106.064 16.742 106.562 16.742C107.061 16.742 107.428 16.874 107.662 17.138C107.912 17.3873 108.036 17.7613 108.036 18.26C108.036 18.7587 107.868 19.1987 107.53 19.58C107.208 19.9613 106.782 20.152 106.254 20.152C105.169 20.152 104.626 19.5873 104.626 18.458C104.626 17.9593 104.766 17.5047 105.044 17.094ZM118.462 17.116C119.738 17.116 120.852 17.49 121.806 18.238C122.759 18.986 123.236 19.954 123.236 21.142C123.236 21.7727 123.06 22.2933 122.708 22.704C122.356 23.1147 121.923 23.32 121.41 23.32C120.896 23.32 120.486 23.254 120.178 23.122C120.222 22.8873 120.244 22.638 120.244 22.374C120.229 21.45 120.002 20.702 119.562 20.13C119.122 19.5433 118.476 19.25 117.626 19.25C116.79 19.25 116.012 19.5213 115.294 20.064C114.868 20.68 114.538 21.4867 114.304 22.484C114.069 23.4813 113.952 24.464 113.952 25.432C113.952 27.0453 114.26 28.402 114.876 29.502C115.506 30.5873 116.482 31.13 117.802 31.13C119.019 31.13 119.84 30.668 120.266 29.744C120.662 28.9373 120.86 27.8667 120.86 26.532C121.608 26.532 122.231 26.6713 122.73 26.95C123.228 27.214 123.478 27.654 123.478 28.27C123.478 29.7073 122.847 30.9027 121.586 31.856C120.324 32.7947 118.902 33.264 117.318 33.264C115.25 33.264 113.68 32.582 112.61 31.218C111.539 29.8393 111.004 27.9767 111.004 25.63C111.004 23.2833 111.671 21.2813 113.006 19.624C114.355 17.952 116.174 17.116 118.462 17.116ZM129.974 19.162C129.974 20.262 129.864 21.714 129.644 23.518C129.439 25.322 129.336 26.7153 129.336 27.698C129.336 28.6807 129.6 29.502 130.128 30.162C130.656 30.8073 131.441 31.13 132.482 31.13C132.908 31.13 133.421 31.0273 134.022 30.822C134.624 30.6167 135.1 30.3527 135.452 30.03C135.643 28.402 135.738 26.312 135.738 23.76C135.738 21.1933 135.555 19.1107 135.188 17.512C135.658 17.336 136.156 17.248 136.684 17.248C137.212 17.248 137.667 17.4167 138.048 17.754C138.444 18.0913 138.642 18.5313 138.642 19.074C138.642 19.6167 138.576 20.548 138.444 21.868C138.327 23.188 138.268 24.6693 138.268 26.312C138.268 27.94 138.342 29.3773 138.488 30.624C136.347 32.384 134.176 33.264 131.976 33.264C130.304 33.264 128.999 32.8387 128.06 31.988C127.136 31.1227 126.674 29.876 126.674 28.248C126.674 27.7347 126.718 26.8107 126.806 25.476C126.909 24.1267 126.96 23.144 126.96 22.528C126.96 20.3133 126.814 18.6853 126.52 17.644C126.99 17.468 127.488 17.38 128.016 17.38C128.544 17.38 128.999 17.5487 129.38 17.886C129.776 18.2233 129.974 18.6487 129.974 19.162ZM149.446 22.132C149.504 21.8387 149.534 21.538 149.534 21.23C149.534 19.8073 148.837 19.096 147.444 19.096C146.813 19.096 146.278 19.228 145.838 19.492C145.427 19.976 145.222 20.5553 145.222 21.23C145.222 21.67 145.412 22.0513 145.794 22.374C146.175 22.682 146.644 22.924 147.202 23.1C147.774 23.276 148.39 23.496 149.05 23.76C149.71 24.024 150.318 24.31 150.876 24.618C151.448 24.9113 151.924 25.3587 152.306 25.96C152.687 26.5467 152.878 27.2433 152.878 28.05C152.878 29.59 152.284 30.844 151.096 31.812C149.922 32.78 148.507 33.264 146.85 33.264C145.515 33.264 144.378 32.934 143.44 32.274C142.516 31.5993 142.054 30.6607 142.054 29.458C142.054 28.842 142.237 28.3287 142.604 27.918C142.985 27.4927 143.432 27.28 143.946 27.28C144.474 27.28 144.862 27.346 145.112 27.478C144.994 27.918 144.936 28.314 144.936 28.666C144.936 29.458 145.156 30.0887 145.596 30.558C146.05 31.0127 146.674 31.24 147.466 31.24C148.258 31.24 148.896 31.0347 149.38 30.624C149.864 30.2133 150.106 29.6707 150.106 28.996C150.106 28.3067 149.834 27.742 149.292 27.302C148.764 26.862 148.118 26.51 147.356 26.246C146.593 25.982 145.83 25.7033 145.068 25.41C144.305 25.1167 143.652 24.684 143.11 24.112C142.582 23.5253 142.318 22.792 142.318 21.912C142.318 20.5333 142.912 19.3893 144.1 18.48C145.302 17.5707 146.659 17.116 148.17 17.116C149.284 17.116 150.245 17.3433 151.052 17.798C151.873 18.238 152.284 18.9127 152.284 19.822C152.284 20.482 152.071 21.0467 151.646 21.516C151.22 21.9707 150.685 22.198 150.04 22.198C149.864 22.198 149.666 22.176 149.446 22.132Z" fill="url(#paint0_linear_3_27)"/>
<rect x="39" y="17" width="16" height="3.69231" fill="url(#paint1_linear_3_27)"/>
<rect x="39" y="23.1538" width="10.3226" height="3.69231" fill="url(#paint2_linear_3_27)"/>
<rect x="39" y="29.3077" width="16" height="3.69231" fill="url(#paint3_linear_3_27)"/>
<circle cx="106.5" cy="18.2" r="2" fill="url(#paint4_linear_3_27)"/>
<path d="M97.88 36.53C97.8933 36.4633 97.9 36.395 97.9 36.325C97.9 36.0017 97.7417 35.84 97.425 35.84C97.2817 35.84 97.16 35.87 97.06 35.93C96.9667 36.04 96.92 36.1717 96.92 36.325C96.92 36.425 96.9633 36.5117 97.05 36.585C97.1367 36.655 97.2433 36.71 97.37 36.75C97.5 36.79 97.64 36.84 97.79 36.9C97.94 36.96 98.0783 37.025 98.205 37.095C98.335 37.1617 98.4433 37.2633 98.53 37.4C98.6167 37.5333 98.66 37.6917 98.66 37.875C98.66 38.225 98.525 38.51 98.255 38.73C97.9883 38.95 97.6667 39.06 97.29 39.06C96.9867 39.06 96.7283 38.985 96.515 38.835C96.305 38.6817 96.2 38.4683 96.2 38.195C96.2 38.055 96.2417 37.9383 96.325 37.845C96.4117 37.7483 96.5133 37.7 96.63 37.7C96.75 37.7 96.8383 37.715 96.895 37.745C96.8683 37.845 96.855 37.935 96.855 38.015C96.855 38.195 96.905 38.3383 97.005 38.445C97.1083 38.5483 97.25 38.6 97.43 38.6C97.61 38.6 97.755 38.5533 97.865 38.46C97.975 38.3667 98.03 38.2433 98.03 38.09C98.03 37.9333 97.9683 37.805 97.845 37.705C97.725 37.605 97.5783 37.525 97.405 37.465C97.2317 37.405 97.0583 37.3417 96.885 37.275C96.7117 37.2083 96.5633 37.11 96.44 36.98C96.32 36.8467 96.26 36.68 96.26 36.48C96.26 36.1667 96.395 35.9067 96.665 35.7C96.9383 35.4933 97.2467 35.39 97.59 35.39C97.8433 35.39 98.0617 35.4417 98.245 35.545C98.4317 35.645 98.525 35.7983 98.525 36.005C98.525 36.155 98.4767 36.2833 98.38 36.39C98.2833 36.4933 98.1617 36.545 98.015 36.545C97.975 36.545 97.93 36.54 97.88 36.53ZM99.7776 39.06C99.411 39.06 99.141 38.9533 98.9676 38.74C98.7943 38.5233 98.7076 38.2233 98.7076 37.84C98.7076 37.4533 98.8226 37.1183 99.0526 36.835C99.2826 36.5517 99.5776 36.41 99.9376 36.41C100.678 36.41 101.048 36.8267 101.048 37.66C101.048 38.05 100.928 38.3817 100.688 38.655C100.448 38.925 100.144 39.06 99.7776 39.06ZM99.4176 36.96C99.3576 37.1533 99.3276 37.3467 99.3276 37.54C99.3276 37.7333 99.3343 37.8833 99.3476 37.99C99.361 38.0967 99.386 38.2033 99.4226 38.31C99.4993 38.5267 99.6493 38.635 99.8726 38.635C100.099 38.635 100.248 38.575 100.318 38.455C100.391 38.335 100.428 38.15 100.428 37.9C100.428 37.19 100.259 36.835 99.9226 36.835C99.7293 36.835 99.561 36.8767 99.4176 36.96ZM101.501 38.185C101.501 38.125 101.486 37.735 101.456 37.015C101.293 37.025 101.163 37.0533 101.066 37.1C101.026 37.0267 101.006 36.95 101.006 36.87C101.006 36.79 101.034 36.725 101.091 36.675C101.148 36.6217 101.214 36.595 101.291 36.595C101.368 36.595 101.423 36.5967 101.456 36.6C101.473 36.2233 101.601 35.905 101.841 35.645C102.081 35.3817 102.383 35.25 102.746 35.25C102.949 35.25 103.121 35.2933 103.261 35.38C103.401 35.4667 103.471 35.595 103.471 35.765C103.471 35.885 103.426 35.9867 103.336 36.07C103.246 36.1533 103.139 36.195 103.016 36.195C102.989 36.195 102.956 36.1917 102.916 36.185C102.926 36.1417 102.931 36.1033 102.931 36.07C102.931 35.9533 102.906 35.86 102.856 35.79C102.806 35.7167 102.718 35.68 102.591 35.68C102.464 35.68 102.348 35.7167 102.241 35.79C102.174 35.88 102.121 36.005 102.081 36.165C102.041 36.325 102.021 36.4817 102.021 36.635H102.136C102.356 36.635 102.618 36.6 102.921 36.53C102.961 36.5967 102.981 36.6767 102.981 36.77C102.981 36.86 102.943 36.935 102.866 36.995C102.789 37.055 102.693 37.085 102.576 37.085C102.573 37.085 102.384 37.0617 102.011 37.015L102.061 39.615C102.061 39.8317 101.933 39.94 101.676 39.94C101.589 39.94 101.476 39.92 101.336 39.88C101.446 39.4433 101.501 38.8783 101.501 38.185ZM103.174 35.735C103.281 35.6817 103.389 35.655 103.499 35.655C103.609 35.655 103.698 35.69 103.764 35.76C103.834 35.83 103.869 35.9333 103.869 36.07C103.869 36.2067 103.861 36.3617 103.844 36.535C104.094 36.535 104.333 36.5 104.559 36.43C104.599 36.4967 104.619 36.575 104.619 36.665C104.619 36.7517 104.579 36.8233 104.499 36.88C104.423 36.9333 104.344 36.96 104.264 36.96C104.184 36.96 104.094 36.95 103.994 36.93C103.894 36.91 103.829 36.8983 103.799 36.895C103.796 36.925 103.786 36.985 103.769 37.075C103.756 37.165 103.744 37.2433 103.734 37.31C103.708 37.4933 103.694 37.69 103.694 37.9C103.694 38.3567 103.843 38.585 104.139 38.585C104.249 38.585 104.376 38.5467 104.519 38.47C104.563 38.5333 104.584 38.615 104.584 38.715C104.584 38.815 104.529 38.8933 104.419 38.95C104.313 39.0033 104.184 39.03 104.034 39.03C103.448 39.03 103.154 38.6967 103.154 38.03C103.154 37.9333 103.168 37.7583 103.194 37.505C103.224 37.2517 103.239 37.0467 103.239 36.89C103.079 36.9 102.951 36.9283 102.854 36.975C102.814 36.915 102.794 36.8467 102.794 36.77C102.794 36.69 102.823 36.625 102.879 36.575C102.936 36.5217 103.006 36.495 103.089 36.495C103.173 36.495 103.228 36.4967 103.254 36.5C103.258 36.4733 103.259 36.4383 103.259 36.395C103.259 36.145 103.231 35.925 103.174 35.735ZM104.542 36.75C104.645 36.5633 104.792 36.47 104.982 36.47C105.105 36.47 105.205 36.5367 105.282 36.67C105.359 36.8 105.412 36.9617 105.442 37.155C105.475 37.345 105.502 37.5383 105.522 37.735C105.572 38.225 105.634 38.4933 105.707 38.54C105.837 38.5067 105.952 38.3083 106.052 37.945C106.152 37.5783 106.202 37.3033 106.202 37.12C106.202 36.9333 106.192 36.785 106.172 36.675C106.289 36.6517 106.389 36.64 106.472 36.64C106.759 36.64 106.902 36.7767 106.902 37.05C106.902 37.4767 106.924 37.825 106.967 38.095C107.014 38.3617 107.069 38.52 107.132 38.57C107.225 38.5633 107.305 38.49 107.372 38.35C107.439 38.21 107.487 38.04 107.517 37.84C107.574 37.4633 107.602 37.175 107.602 36.975C107.602 36.7717 107.592 36.615 107.572 36.505C107.689 36.4817 107.789 36.47 107.872 36.47C108.159 36.47 108.302 36.6067 108.302 36.88C108.302 37.0533 108.267 37.2633 108.197 37.51C108.127 37.7533 108.035 37.9917 107.922 38.225C107.809 38.455 107.67 38.6517 107.507 38.815C107.347 38.9783 107.187 39.06 107.027 39.06C106.844 39.06 106.705 38.9233 106.612 38.65C106.539 38.4433 106.479 38.175 106.432 37.845C106.402 37.955 106.38 38.035 106.367 38.085C106.354 38.135 106.33 38.21 106.297 38.31C106.264 38.41 106.234 38.4867 106.207 38.54C106.18 38.5933 106.144 38.6567 106.097 38.73C106.054 38.8033 106.009 38.8567 105.962 38.89C105.845 38.9833 105.715 39.03 105.572 39.03C105.432 39.03 105.315 38.9667 105.222 38.84C105.132 38.7133 105.069 38.5517 105.032 38.355C104.999 38.1583 104.969 37.9567 104.942 37.75C104.879 37.2233 104.745 36.89 104.542 36.75ZM110.699 36.645C110.609 37.0283 110.564 37.4133 110.564 37.8C110.564 38.1833 110.608 38.5633 110.694 38.94C110.574 38.98 110.451 39 110.324 39C110.198 39 110.109 38.9633 110.059 38.89C110.009 38.8133 109.984 38.705 109.984 38.565C109.984 38.4217 110.006 38.2267 110.049 37.98C109.813 38.4867 109.584 38.8067 109.364 38.94C109.264 39 109.161 39.03 109.054 39.03C108.801 39.03 108.604 38.9367 108.464 38.75C108.324 38.56 108.254 38.325 108.254 38.045C108.254 37.6183 108.373 37.245 108.609 36.925C108.846 36.6017 109.153 36.44 109.529 36.44C109.909 36.44 110.299 36.5083 110.699 36.645ZM110.044 36.945C109.868 36.8917 109.718 36.865 109.594 36.865C109.344 36.865 109.158 36.92 109.034 37.03C108.921 37.31 108.864 37.595 108.864 37.885C108.864 38.0383 108.888 38.1933 108.934 38.35C108.984 38.5067 109.059 38.585 109.159 38.585C109.276 38.585 109.426 38.4133 109.609 38.07C109.793 37.7267 109.938 37.3517 110.044 36.945ZM111.674 38.94C111.571 38.98 111.461 39 111.344 39C111.227 39 111.132 38.9733 111.059 38.92C110.989 38.8633 110.954 38.7867 110.954 38.69C110.954 38.59 110.969 38.41 110.999 38.15C111.029 37.89 111.044 37.6383 111.044 37.395C111.044 37.1483 111.006 36.86 110.929 36.53C111.036 36.49 111.141 36.47 111.244 36.47C111.347 36.47 111.436 36.505 111.509 36.575C111.586 36.645 111.624 36.7383 111.624 36.855C111.624 36.915 111.614 37.005 111.594 37.125C111.574 37.2417 111.562 37.33 111.559 37.39C111.689 37.0933 111.842 36.8617 112.019 36.695C112.199 36.525 112.377 36.44 112.554 36.44C112.677 36.44 112.776 36.4833 112.849 36.57C112.922 36.6567 112.959 36.7667 112.959 36.9C112.959 37.03 112.926 37.1367 112.859 37.22C112.792 37.3 112.709 37.34 112.609 37.34C112.512 37.34 112.434 37.33 112.374 37.31C112.384 37.27 112.389 37.2333 112.389 37.2C112.389 37.0633 112.341 36.995 112.244 36.995C112.097 36.995 111.959 37.1433 111.829 37.44C111.702 37.7333 111.617 38.0083 111.574 38.265C111.591 38.515 111.624 38.74 111.674 38.94ZM113.474 37.865C113.474 38.105 113.512 38.295 113.589 38.435C113.666 38.5717 113.794 38.64 113.974 38.64C114.154 38.64 114.294 38.58 114.394 38.46C114.497 38.3367 114.549 38.1883 114.549 38.015C114.662 38.015 114.761 38.0433 114.844 38.1C114.927 38.1567 114.969 38.235 114.969 38.335C114.969 38.5417 114.859 38.715 114.639 38.855C114.419 38.9917 114.187 39.06 113.944 39.06C113.564 39.06 113.289 38.9583 113.119 38.755C112.949 38.5483 112.864 38.2433 112.864 37.84C112.864 37.4367 112.977 37.0983 113.204 36.825C113.434 36.5483 113.739 36.41 114.119 36.41C114.379 36.41 114.587 36.47 114.744 36.59C114.904 36.7067 114.984 36.89 114.984 37.14C114.984 37.3867 114.871 37.5733 114.644 37.7C114.421 37.8233 114.147 37.885 113.824 37.885C113.711 37.885 113.594 37.8783 113.474 37.865ZM113.479 37.47C113.579 37.49 113.684 37.5 113.794 37.5C114.034 37.5 114.236 37.455 114.399 37.365C114.419 37.285 114.429 37.2217 114.429 37.175C114.429 37.0583 114.387 36.97 114.304 36.91C114.221 36.85 114.106 36.82 113.959 36.82C113.816 36.82 113.686 36.8667 113.569 36.96C113.509 37.1333 113.479 37.3033 113.479 37.47ZM118.087 36.53C118.1 36.4633 118.107 36.395 118.107 36.325C118.107 36.0017 117.949 35.84 117.632 35.84C117.489 35.84 117.367 35.87 117.267 35.93C117.174 36.04 117.127 36.1717 117.127 36.325C117.127 36.425 117.17 36.5117 117.257 36.585C117.344 36.655 117.45 36.71 117.577 36.75C117.707 36.79 117.847 36.84 117.997 36.9C118.147 36.96 118.285 37.025 118.412 37.095C118.542 37.1617 118.65 37.2633 118.737 37.4C118.824 37.5333 118.867 37.6917 118.867 37.875C118.867 38.225 118.732 38.51 118.462 38.73C118.195 38.95 117.874 39.06 117.497 39.06C117.194 39.06 116.935 38.985 116.722 38.835C116.512 38.6817 116.407 38.4683 116.407 38.195C116.407 38.055 116.449 37.9383 116.532 37.845C116.619 37.7483 116.72 37.7 116.837 37.7C116.957 37.7 117.045 37.715 117.102 37.745C117.075 37.845 117.062 37.935 117.062 38.015C117.062 38.195 117.112 38.3383 117.212 38.445C117.315 38.5483 117.457 38.6 117.637 38.6C117.817 38.6 117.962 38.5533 118.072 38.46C118.182 38.3667 118.237 38.2433 118.237 38.09C118.237 37.9333 118.175 37.805 118.052 37.705C117.932 37.605 117.785 37.525 117.612 37.465C117.439 37.405 117.265 37.3417 117.092 37.275C116.919 37.2083 116.77 37.11 116.647 36.98C116.527 36.8467 116.467 36.68 116.467 36.48C116.467 36.1667 116.602 35.9067 116.872 35.7C117.145 35.4933 117.454 35.39 117.797 35.39C118.05 35.39 118.269 35.4417 118.452 35.545C118.639 35.645 118.732 35.7983 118.732 36.005C118.732 36.155 118.684 36.2833 118.587 36.39C118.49 36.4933 118.369 36.545 118.222 36.545C118.182 36.545 118.137 36.54 118.087 36.53ZM119.984 39.06C119.618 39.06 119.348 38.9533 119.174 38.74C119.001 38.5233 118.914 38.2233 118.914 37.84C118.914 37.4533 119.029 37.1183 119.259 36.835C119.489 36.5517 119.784 36.41 120.144 36.41C120.884 36.41 121.254 36.8267 121.254 37.66C121.254 38.05 121.134 38.3817 120.894 38.655C120.654 38.925 120.351 39.06 119.984 39.06ZM119.624 36.96C119.564 37.1533 119.534 37.3467 119.534 37.54C119.534 37.7333 119.541 37.8833 119.554 37.99C119.568 38.0967 119.593 38.2033 119.629 38.31C119.706 38.5267 119.856 38.635 120.079 38.635C120.306 38.635 120.454 38.575 120.524 38.455C120.598 38.335 120.634 38.15 120.634 37.9C120.634 37.19 120.466 36.835 120.129 36.835C119.936 36.835 119.768 36.8767 119.624 36.96ZM121.503 35.31C121.609 35.27 121.719 35.25 121.833 35.25C121.946 35.25 122.039 35.2883 122.113 35.365C122.189 35.4383 122.228 35.54 122.228 35.67C122.228 35.7967 122.209 36.0533 122.173 36.44C122.139 36.8233 122.123 37.125 122.123 37.345C122.123 37.8883 122.161 38.42 122.238 38.94C122.131 38.98 122.018 39 121.898 39C121.641 39 121.513 38.875 121.513 38.625C121.513 38.505 121.531 38.27 121.568 37.92C121.604 37.5667 121.623 37.2833 121.623 37.07C121.623 36.36 121.583 35.7733 121.503 35.31ZM122.645 38.49L122.695 37.45C122.695 37.1267 122.649 36.82 122.555 36.53C122.649 36.49 122.764 36.47 122.9 36.47C123.167 36.47 123.3 36.6183 123.3 36.915C123.3 37.0817 123.282 37.3167 123.245 37.62C123.209 37.92 123.19 38.1383 123.19 38.275C123.19 38.4417 123.265 38.525 123.415 38.525C123.505 38.525 123.61 38.45 123.73 38.3C123.854 38.1467 123.959 37.9767 124.045 37.79C124.135 37.6 124.189 37.445 124.205 37.325C124.185 36.9583 124.157 36.6933 124.12 36.53C124.227 36.49 124.335 36.47 124.445 36.47C124.559 36.47 124.652 36.505 124.725 36.575C124.802 36.645 124.84 36.7317 124.84 36.835C124.84 36.9383 124.825 37.11 124.795 37.35C124.765 37.59 124.75 37.8417 124.75 38.105C124.75 38.365 124.78 38.6433 124.84 38.94C124.71 38.98 124.594 39 124.49 39C124.284 39 124.18 38.8633 124.18 38.59C124.18 38.47 124.194 38.3033 124.22 38.09C124.087 38.3733 123.924 38.6017 123.73 38.775C123.54 38.945 123.347 39.03 123.15 39.03C122.814 39.03 122.645 38.85 122.645 38.49ZM125.344 35.735C125.451 35.6817 125.559 35.655 125.669 35.655C125.779 35.655 125.868 35.69 125.934 35.76C126.004 35.83 126.039 35.9333 126.039 36.07C126.039 36.2067 126.031 36.3617 126.014 36.535C126.264 36.535 126.503 36.5 126.729 36.43C126.769 36.4967 126.789 36.575 126.789 36.665C126.789 36.7517 126.749 36.8233 126.669 36.88C126.593 36.9333 126.514 36.96 126.434 36.96C126.354 36.96 126.264 36.95 126.164 36.93C126.064 36.91 125.999 36.8983 125.969 36.895C125.966 36.925 125.956 36.985 125.939 37.075C125.926 37.165 125.914 37.2433 125.904 37.31C125.878 37.4933 125.864 37.69 125.864 37.9C125.864 38.3567 126.013 38.585 126.309 38.585C126.419 38.585 126.546 38.5467 126.689 38.47C126.733 38.5333 126.754 38.615 126.754 38.715C126.754 38.815 126.699 38.8933 126.589 38.95C126.483 39.0033 126.354 39.03 126.204 39.03C125.618 39.03 125.324 38.6967 125.324 38.03C125.324 37.9333 125.338 37.7583 125.364 37.505C125.394 37.2517 125.409 37.0467 125.409 36.89C125.249 36.9 125.121 36.9283 125.024 36.975C124.984 36.915 124.964 36.8467 124.964 36.77C124.964 36.69 124.993 36.625 125.049 36.575C125.106 36.5217 125.176 36.495 125.259 36.495C125.343 36.495 125.398 36.4967 125.424 36.5C125.428 36.4733 125.429 36.4383 125.429 36.395C125.429 36.145 125.401 35.925 125.344 35.735ZM126.942 36.515C127.049 36.485 127.155 36.47 127.262 36.47C127.372 36.47 127.465 36.5033 127.542 36.57C127.619 36.6367 127.657 36.7233 127.657 36.83C127.657 36.9333 127.639 37.115 127.602 37.375C127.569 37.6317 127.552 37.8317 127.552 37.975C127.552 38.3483 127.587 38.67 127.657 38.94C127.554 38.98 127.442 39 127.322 39C127.202 39 127.107 38.9733 127.037 38.92C126.967 38.8633 126.932 38.7833 126.932 38.68C126.932 38.5733 126.952 38.4 126.992 38.16C127.032 37.92 127.052 37.7217 127.052 37.565C127.052 37.1483 127.015 36.7983 126.942 36.515ZM127.007 35.385C127.124 35.3317 127.239 35.305 127.352 35.305C127.465 35.305 127.549 35.335 127.602 35.395C127.659 35.4517 127.687 35.5367 127.687 35.65C127.687 35.7633 127.649 35.8633 127.572 35.95C127.499 36.0367 127.402 36.08 127.282 36.08C127.035 36.08 126.912 35.9517 126.912 35.695C126.912 35.5817 126.944 35.4783 127.007 35.385ZM128.906 39.06C128.54 39.06 128.27 38.9533 128.096 38.74C127.923 38.5233 127.836 38.2233 127.836 37.84C127.836 37.4533 127.951 37.1183 128.181 36.835C128.411 36.5517 128.706 36.41 129.066 36.41C129.806 36.41 130.176 36.8267 130.176 37.66C130.176 38.05 130.056 38.3817 129.816 38.655C129.576 38.925 129.273 39.06 128.906 39.06ZM128.546 36.96C128.486 37.1533 128.456 37.3467 128.456 37.54C128.456 37.7333 128.463 37.8833 128.476 37.99C128.49 38.0967 128.515 38.2033 128.551 38.31C128.628 38.5267 128.778 38.635 129.001 38.635C129.228 38.635 129.376 38.575 129.446 38.455C129.52 38.335 129.556 38.15 129.556 37.9C129.556 37.19 129.388 36.835 129.051 36.835C128.858 36.835 128.69 36.8767 128.546 36.96ZM132.7 36.98L132.65 38.08C132.65 38.3833 132.696 38.68 132.79 38.97C132.696 39.01 132.59 39.03 132.47 39.03C132.186 39.03 132.045 38.8717 132.045 38.555C132.045 38.4117 132.063 38.1717 132.1 37.835C132.136 37.495 132.155 37.2817 132.155 37.195C132.155 37.0283 132.08 36.945 131.93 36.945C131.82 36.945 131.695 37.025 131.555 37.185C131.418 37.3417 131.3 37.5183 131.2 37.715C131.103 37.9083 131.046 38.0683 131.03 38.195C131.043 38.455 131.076 38.7033 131.13 38.94C131.023 38.98 130.911 39 130.795 39C130.681 39 130.588 38.9733 130.515 38.92C130.445 38.8633 130.41 38.7867 130.41 38.69C130.41 38.59 130.425 38.4133 130.455 38.16C130.485 37.9033 130.5 37.65 130.5 37.4C130.5 37.1467 130.461 36.8567 130.385 36.53C130.491 36.49 130.605 36.47 130.725 36.47C130.845 36.47 130.941 36.505 131.015 36.575C131.091 36.645 131.13 36.7317 131.13 36.835C131.13 36.9383 131.116 37.1033 131.09 37.33C131.216 37.0933 131.381 36.8867 131.585 36.71C131.788 36.53 131.991 36.44 132.195 36.44C132.531 36.44 132.7 36.62 132.7 36.98ZM133.544 38.09C133.534 38.1367 133.529 38.175 133.529 38.205C133.529 38.3417 133.569 38.4467 133.649 38.52C133.733 38.5933 133.843 38.63 133.979 38.63C134.119 38.63 134.234 38.605 134.324 38.555C134.418 38.5017 134.464 38.4233 134.464 38.32C134.464 38.2167 134.414 38.135 134.314 38.075C134.218 38.0117 134.099 37.9617 133.959 37.925C133.823 37.8883 133.684 37.8483 133.544 37.805C133.404 37.7583 133.284 37.6867 133.184 37.59C133.088 37.4933 133.039 37.3717 133.039 37.225C133.039 36.995 133.161 36.8017 133.404 36.645C133.648 36.4883 133.903 36.41 134.169 36.41C134.463 36.41 134.686 36.47 134.839 36.59C134.929 36.66 134.974 36.7533 134.974 36.87C134.974 36.9833 134.929 37.0767 134.839 37.15C134.753 37.22 134.646 37.255 134.519 37.255C134.493 37.255 134.459 37.2517 134.419 37.245C134.429 37.2017 134.434 37.1633 134.434 37.13C134.434 37.0333 134.398 36.96 134.324 36.91C134.251 36.86 134.151 36.835 134.024 36.835C133.901 36.835 133.788 36.86 133.684 36.91C133.644 36.9633 133.624 37.0317 133.624 37.115C133.624 37.1983 133.673 37.2667 133.769 37.32C133.866 37.37 133.983 37.415 134.119 37.455C134.259 37.4917 134.399 37.535 134.539 37.585C134.679 37.6317 134.798 37.7067 134.894 37.81C134.991 37.91 135.039 38.0367 135.039 38.19C135.039 38.44 134.914 38.6483 134.664 38.815C134.418 38.9783 134.163 39.06 133.899 39.06C133.636 39.06 133.418 39.0133 133.244 38.92C133.074 38.8233 132.989 38.6783 132.989 38.485C132.989 38.365 133.033 38.2683 133.119 38.195C133.209 38.1183 133.318 38.08 133.444 38.08C133.471 38.08 133.504 38.0833 133.544 38.09ZM136.431 35.61C136.804 35.4833 137.191 35.42 137.591 35.42C137.991 35.42 138.322 35.505 138.586 35.675C138.849 35.845 138.981 36.105 138.981 36.455C138.981 36.805 138.857 37.1 138.611 37.34C138.364 37.5767 138.067 37.695 137.721 37.695C137.467 37.695 137.341 37.5983 137.341 37.405C137.341 37.345 137.352 37.2817 137.376 37.215C137.466 37.2383 137.547 37.25 137.621 37.25C137.851 37.25 138.024 37.1867 138.141 37.06C138.261 36.9333 138.321 36.7583 138.321 36.535C138.321 36.3083 138.257 36.14 138.131 36.03C138.004 35.92 137.827 35.865 137.601 35.865C137.484 35.865 137.342 35.885 137.176 35.925C137.149 36.335 137.136 36.6983 137.136 37.015C137.136 37.9017 137.171 38.5433 137.241 38.94C137.134 38.98 137.021 39 136.901 39C136.781 39 136.676 38.9617 136.586 38.885C136.499 38.8083 136.456 38.7067 136.456 38.58C136.456 38.4533 136.472 38.2333 136.506 37.92C136.539 37.6033 136.556 37.35 136.556 37.16C136.556 36.58 136.514 36.0633 136.431 35.61ZM141.095 38.21C140.978 38.4367 140.832 38.63 140.655 38.79C140.478 38.95 140.302 39.03 140.125 39.03C139.948 39.03 139.812 38.97 139.715 38.85C139.622 38.7267 139.555 38.57 139.515 38.38C139.475 38.1867 139.438 37.9883 139.405 37.785C139.375 37.5817 139.322 37.3833 139.245 37.19C139.168 36.9967 139.063 36.8517 138.93 36.755C138.973 36.675 139.038 36.6083 139.125 36.555C139.212 36.4983 139.305 36.47 139.405 36.47C139.562 36.47 139.688 36.5717 139.785 36.775C139.882 36.975 139.943 37.1967 139.97 37.44C140 37.6833 140.032 37.92 140.065 38.15C140.102 38.3767 140.143 38.5067 140.19 38.54C140.303 38.5333 140.402 38.4617 140.485 38.325C140.572 38.185 140.635 38.0167 140.675 37.82C140.748 37.46 140.785 37.1783 140.785 36.975C140.785 36.7717 140.775 36.615 140.755 36.505C140.872 36.4817 140.972 36.47 141.055 36.47C141.342 36.47 141.485 36.6067 141.485 36.88C141.485 37.0533 141.448 37.2617 141.375 37.505C141.305 37.745 141.212 37.98 141.095 38.21ZM141.791 35.735C141.898 35.6817 142.006 35.655 142.116 35.655C142.226 35.655 142.314 35.69 142.381 35.76C142.451 35.83 142.486 35.9333 142.486 36.07C142.486 36.2067 142.478 36.3617 142.461 36.535C142.711 36.535 142.949 36.5 143.176 36.43C143.216 36.4967 143.236 36.575 143.236 36.665C143.236 36.7517 143.196 36.8233 143.116 36.88C143.039 36.9333 142.961 36.96 142.881 36.96C142.801 36.96 142.711 36.95 142.611 36.93C142.511 36.91 142.446 36.8983 142.416 36.895C142.413 36.925 142.403 36.985 142.386 37.075C142.373 37.165 142.361 37.2433 142.351 37.31C142.324 37.4933 142.311 37.69 142.311 37.9C142.311 38.3567 142.459 38.585 142.756 38.585C142.866 38.585 142.993 38.5467 143.136 38.47C143.179 38.5333 143.201 38.615 143.201 38.715C143.201 38.815 143.146 38.8933 143.036 38.95C142.929 39.0033 142.801 39.03 142.651 39.03C142.064 39.03 141.771 38.6967 141.771 38.03C141.771 37.9333 141.784 37.7583 141.811 37.505C141.841 37.2517 141.856 37.0467 141.856 36.89C141.696 36.9 141.568 36.9283 141.471 36.975C141.431 36.915 141.411 36.8467 141.411 36.77C141.411 36.69 141.439 36.625 141.496 36.575C141.553 36.5217 141.623 36.495 141.706 36.495C141.789 36.495 141.844 36.4967 141.871 36.5C141.874 36.4733 141.876 36.4383 141.876 36.395C141.876 36.145 141.848 35.925 141.791 35.735ZM144.66 38.33C144.767 38.2733 144.875 38.245 144.985 38.245C145.232 38.245 145.355 38.36 145.355 38.59C145.355 38.7133 145.313 38.8183 145.23 38.905C145.147 38.9883 145.047 39.03 144.93 39.03C144.813 39.03 144.723 38.9967 144.66 38.93C144.6 38.8633 144.57 38.7733 144.57 38.66C144.57 38.5433 144.6 38.4333 144.66 38.33ZM145.704 35.51C145.811 35.47 145.926 35.45 146.049 35.45C146.346 35.45 146.494 35.585 146.494 35.855C146.494 36.0017 146.477 36.2433 146.444 36.58C146.411 36.9133 146.394 37.26 146.394 37.62C146.394 37.98 146.406 38.2783 146.429 38.515C146.519 38.525 146.609 38.53 146.699 38.53C147.139 38.53 147.526 38.4567 147.859 38.31C147.899 38.4 147.919 38.5017 147.919 38.615C147.919 38.7283 147.879 38.8267 147.799 38.91C147.722 38.99 147.627 39.03 147.514 39.03C147.277 39.03 146.759 39.01 145.959 38.97C145.896 38.9667 145.841 38.9483 145.794 38.915C145.747 38.8783 145.724 38.8333 145.724 38.78C145.724 38.6033 145.737 38.305 145.764 37.885C145.794 37.465 145.809 37.0783 145.809 36.725C145.809 36.3683 145.774 35.9633 145.704 35.51ZM148.227 35.735C148.334 35.6817 148.442 35.655 148.552 35.655C148.662 35.655 148.751 35.69 148.817 35.76C148.887 35.83 148.922 35.9333 148.922 36.07C148.922 36.2067 148.914 36.3617 148.897 36.535C149.147 36.535 149.386 36.5 149.612 36.43C149.652 36.4967 149.672 36.575 149.672 36.665C149.672 36.7517 149.632 36.8233 149.552 36.88C149.476 36.9333 149.397 36.96 149.317 36.96C149.237 36.96 149.147 36.95 149.047 36.93C148.947 36.91 148.882 36.8983 148.852 36.895C148.849 36.925 148.839 36.985 148.822 37.075C148.809 37.165 148.797 37.2433 148.787 37.31C148.761 37.4933 148.747 37.69 148.747 37.9C148.747 38.3567 148.896 38.585 149.192 38.585C149.302 38.585 149.429 38.5467 149.572 38.47C149.616 38.5333 149.637 38.615 149.637 38.715C149.637 38.815 149.582 38.8933 149.472 38.95C149.366 39.0033 149.237 39.03 149.087 39.03C148.501 39.03 148.207 38.6967 148.207 38.03C148.207 37.9333 148.221 37.7583 148.247 37.505C148.277 37.2517 148.292 37.0467 148.292 36.89C148.132 36.9 148.004 36.9283 147.907 36.975C147.867 36.915 147.847 36.8467 147.847 36.77C147.847 36.69 147.876 36.625 147.932 36.575C147.989 36.5217 148.059 36.495 148.142 36.495C148.226 36.495 148.281 36.4967 148.307 36.5C148.311 36.4733 148.312 36.4383 148.312 36.395C148.312 36.145 148.284 35.925 148.227 35.735ZM151.39 35.31C151.497 35.27 151.607 35.25 151.72 35.25C151.833 35.25 151.927 35.2883 152 35.365C152.073 35.4383 152.11 35.5317 152.11 35.645C152.11 35.755 152.093 36.0183 152.06 36.435C152.027 36.8483 152.01 37.2567 152.01 37.66C152.01 38.06 152.05 38.4867 152.13 38.94C152.01 38.98 151.885 39 151.755 39C151.535 39 151.425 38.845 151.425 38.535C151.425 38.4317 151.447 38.2467 151.49 37.98C151.35 38.2767 151.225 38.4967 151.115 38.64C151.008 38.7833 150.903 38.885 150.8 38.945C150.7 39.0017 150.593 39.03 150.48 39.03C150.227 39.03 150.032 38.9367 149.895 38.75C149.762 38.5633 149.695 38.3333 149.695 38.06C149.695 37.7867 149.743 37.53 149.84 37.29C149.94 37.0467 150.088 36.845 150.285 36.685C150.485 36.5217 150.697 36.44 150.92 36.44C151.143 36.44 151.337 36.47 151.5 36.53C151.493 36.1 151.457 35.6933 151.39 35.31ZM151.5 36.955C151.337 36.895 151.16 36.865 150.97 36.865C150.78 36.865 150.617 36.92 150.48 37.03C150.367 37.3 150.31 37.6017 150.31 37.935C150.31 38.0883 150.332 38.235 150.375 38.375C150.418 38.515 150.49 38.585 150.59 38.585C150.743 38.585 150.917 38.4133 151.11 38.07C151.307 37.7267 151.437 37.355 151.5 36.955ZM152.473 38.33C152.58 38.2733 152.688 38.245 152.798 38.245C153.045 38.245 153.168 38.36 153.168 38.59C153.168 38.7133 153.127 38.8183 153.043 38.905C152.96 38.9883 152.86 39.03 152.743 39.03C152.627 39.03 152.537 38.9967 152.473 38.93C152.413 38.8633 152.383 38.7733 152.383 38.66C152.383 38.5433 152.413 38.4333 152.473 38.33Z" fill="#FF3269"/>
<defs>
<linearGradient id="paint0_linear_3_27" x1="83.5" y1="12" x2="83" y2="46" gradientUnits="userSpaceOnUse">
<stop stop-color="#FF3269"/>
<stop offset="0.840107" stop-color="#FF794D"/>
</linearGradient>
<linearGradient id="paint1_linear_3_27" x1="47" y1="17" x2="47" y2="21.5" gradientUnits="userSpaceOnUse">
<stop stop-color="#FF3269"/>
<stop offset="1" stop-color="#FF794D"/>
</linearGradient>
<linearGradient id="paint2_linear_3_27" x1="44.1613" y1="23.1538" x2="44.1613" y2="27.6538" gradientUnits="userSpaceOnUse">
<stop stop-color="#FF3269"/>
<stop offset="1" stop-color="#FF794D"/>
</linearGradient>
<linearGradient id="paint3_linear_3_27" x1="47" y1="29.3077" x2="47" y2="33.8077" gradientUnits="userSpaceOnUse">
<stop stop-color="#FF3269"/>
<stop offset="1" stop-color="#FF794D"/>
</linearGradient>
<linearGradient id="paint4_linear_3_27" x1="106.5" y1="16.2" x2="106.8" y2="20.2" gradientUnits="userSpaceOnUse">
<stop stop-color="#FF3269"/>
<stop offset="1" stop-color="#F95937"/>
</linearGradient>
</defs>
</svg>
