<svg xmlns="http://www.w3.org/2000/svg" width="86" height="82" fill="none" viewBox="0 0 86 82"><mask id="mask0_33314_38229" width="86" height="82" x="0" y="0" maskUnits="userSpaceOnUse" style="mask-type:alpha"><rect width="86" height="82" fill="#fff" rx="8"/></mask><g mask="url(#mask0_33314_38229)"><path fill="url(#paint0_linear_33314_38229)" d="M45.052 16.766h-27.29v44.398h27.29V16.766Z"/><path stroke="url(#paint1_linear_33314_38229)" stroke-width="4.499" d="M41.99 16H20.824A3.824 3.824 0 0 0 17 19.824v38.274a3.824 3.824 0 0 0 3.824 3.824H41.99a3.824 3.824 0 0 0 3.824-3.824V19.824A3.824 3.824 0 0 0 41.99 16Z"/><path fill="#BE84D8" fill-rule="evenodd" d="M21.123 19.824a.51.51 0 0 0-.51.51v6.312c0 .282.229.51.51.51h2.25v-3.6c0-.582.463-1.059 1.04-1.081V21.06c0-.12.096-.216.216-.216h1.154c.12 0 .216.097.216.216v1.415a1.083 1.083 0 0 1 1.04 1.08v3.601h2.025a.51.51 0 0 0 .51-.51v-6.312a.51.51 0 0 0-.51-.51h-7.94Z" clip-rule="evenodd"/><path fill="#BE84D8" d="M29.492 28.492h-8.668v1.02h8.668v-1.02ZM29.492 30.02h-8.668v1.02h8.668v-1.02ZM29.493 31.555h-4.079v1.02h4.08v-1.02Z"/><path fill="#BE84D8" fill-rule="evenodd" d="M33.06 19.824a.51.51 0 0 0-.51.51v6.312c0 .282.23.51.51.51h2.959a2.098 2.098 0 0 0-.08-1.5h2.135a2.099 2.099 0 0 0-.08 1.5h3.008a.51.51 0 0 0 .51-.51v-6.312a.51.51 0 0 0-.51-.51h-7.941Zm4.59 2.04h-1.29v.54h.007c-.218.273-.592.812-.627 1.336h-.03v1.916h2.59v-.711h.001V23.74h-.016c-.036-.53-.418-1.076-.635-1.345v-.531Z" clip-rule="evenodd"/><path fill="#BE84D8" d="M41.43 28.492h-8.668v1.02h8.668v-1.02ZM41.43 30.02h-8.668v1.02h8.668v-1.02ZM41.43 31.555h-4.078v1.02h4.079v-1.02Z"/><path fill="#BE84D8" fill-rule="evenodd" d="M21.123 36.14a.51.51 0 0 0-.51.51v6.312c0 .282.229.51.51.51h1.794c.086-.545.243-1.68.202-2.488-.036-.703-.255-1.784-.255-1.784h4.589s-.219 1.081-.255 1.784c-.041.808.116 1.943.202 2.488h1.665a.51.51 0 0 0 .51-.51V36.65a.51.51 0 0 0-.51-.51h-7.942Z" clip-rule="evenodd"/><path fill="#BE84D8" d="M29.492 44.809h-8.668v1.02h8.668v-1.02ZM29.493 46.336h-4.079v1.02h4.08v-1.02Z"/><path fill="#BE84D8" fill-rule="evenodd" d="M33.06 36.14a.51.51 0 0 0-.51.51v6.312c0 .282.23.51.51.51h3.06v-3.555c0-.483.383-.877.86-.896v-1.172c0-.098.08-.179.18-.179h.956c.099 0 .18.08.18.18v1.171c.477.019.86.413.86.896v3.555h1.846a.51.51 0 0 0 .51-.51V36.65a.51.51 0 0 0-.51-.51h-7.941Z" clip-rule="evenodd"/><path fill="#BE84D8" d="M41.43 44.809h-8.668v1.02h8.668v-1.02ZM41.43 46.336h-8.668v1.02h8.668v-1.02ZM41.43 47.871h-4.078v1.02h4.079v-1.02Z"/><path fill="#BE84D8" fill-opacity=".8" fill-rule="evenodd" d="M21.123 52.457a.51.51 0 0 0-.51.51v6.119h3.512l-.656-1.894a1.65 1.65 0 0 1 .494-1.816 1.684 1.684 0 0 1 2.65.783l1.013 2.927h1.948v-6.12a.51.51 0 0 0-.51-.509h-7.94ZM33.06 52.457a.51.51 0 0 0-.51.51v6.119h2.743c.05-.53.084-1.11.062-1.587-.036-.78-.255-1.983-.255-1.983h4.59s-.22 1.202-.256 1.983a12.06 12.06 0 0 0 .062 1.587h2.016v-6.12a.51.51 0 0 0-.51-.509h-7.941Z" clip-rule="evenodd"/><path fill="url(#paint2_linear_33314_38229)" d="m68.075 59.011-12.677 7.146a1.816 1.816 0 0 1-2.473-.69L50.93 61.93a2.155 2.155 0 0 1 .818-2.926l1.707-.963 10.39-5.856a2.155 2.155 0 0 1 2.926.816l1.281 2.273.713 1.264a1.816 1.816 0 0 1-.69 2.473Z"/><path fill="url(#paint3_linear_33314_38229)" stroke="#3C006B" stroke-width="1.8" d="M63.317 51.914a2.39 2.39 0 0 0 .906-3.245l-5.588-9.916h-.001a2.39 2.39 0 0 0-3.245-.904l-8.51 4.795-.46.26-.243-.469-5.316-10.23c-.708-1.247-2.246-1.772-3.524-1.181a2.69 2.69 0 0 0-.549.337l-.001.001a2.725 2.725 0 0 0-.68 3.457l.005.007.003.007 5.708 10.922a2.9 2.9 0 0 0 .084.137l.017.026.014.028c.024.05.05.1.078.151.095.17.15.35.168.529.086.836-.64 1.636-1.577 1.482l-2.09-.34h-.006v-.001a2.69 2.69 0 0 0-3.101 2.135c-.279 1.454.75 2.894 2.238 3.157l8.579 1.52c.4.071.748.318.948.67l.001.002 1.294 2.298a2.393 2.393 0 0 0 3.246.906l11.602-6.54Z"/></g><defs><linearGradient id="paint0_linear_33314_38229" x1="28.352" x2="28.352" y1="61.163" y2="16.766" gradientUnits="userSpaceOnUse"><stop stop-color="#521B7C"/><stop offset="1" stop-color="#67209E"/></linearGradient><linearGradient id="paint1_linear_33314_38229" x1="54.732" x2="17.765" y1="74.383" y2="9.626" gradientUnits="userSpaceOnUse"><stop stop-color="#FF3668"/><stop offset="1" stop-color="#8B10C4"/></linearGradient><linearGradient id="paint2_linear_33314_38229" x1="56.772" x2="68.5" y1="52.459" y2="64.951" gradientUnits="userSpaceOnUse"><stop stop-color="#FF794D"/><stop offset="1" stop-color="#FF3269"/></linearGradient><linearGradient id="paint3_linear_33314_38229" x1="51.228" x2="59.977" y1="41.219" y2="52.21" gradientUnits="userSpaceOnUse"><stop stop-color="#FFBCA6"/><stop offset="1" stop-color="#DF947B"/></linearGradient></defs></svg>